<svg aria-hidden="true" style="width:0;height:0;position:absolute;overflow:hidden" xmlns="http://www.w3.org/2000/svg"><defs><symbol id="logo-taro" viewBox="0 0 42 32"><path d="M19.464 1.89c-.02.02-.037.045-.037.055 0 .028-.077.09-.11.09-.016 0-.033.01-.037.024-.006.016-.067.028-.165.033-.167.008-.201.037-.1.079.03.014.073.037.096.051.069.045.232.222.246.269.008.022.024.049.037.057s.169.016.35.016c.254 0 .334.006.366.03a.14.14 0 0 0 .067.03c.051 0 .165.134.165.195a.12.12 0 0 0 .055.098c.051.037.067.039.238.016.102-.012.226-.018.277-.012l.092.01-.065-.03c-.057-.026-.065-.037-.049-.075a.147.147 0 0 1 .055-.069c.02-.01.043-.026.049-.033s.047-.018.092-.026.124-.028.177-.047c.085-.026.1-.026.142.002.049.035.199.045.199.014 0-.022-.051-.043-.114-.043-.026 0-.049-.008-.049-.018s-.041-.028-.092-.041c-.051-.012-.092-.033-.092-.043 0-.012-.022-.02-.049-.02-.057 0-.305-.136-.387-.214-.03-.028-.063-.051-.075-.051a.018.018 0 0 1-.018-.018c0-.012-.022-.045-.049-.073-.051-.055-.106-.057-.171-.006-.033.028-.33.024-.358-.004-.01-.01-.035-.02-.053-.02s-.067-.018-.112-.041c-.045-.022-.094-.041-.112-.041s-.043-.01-.053-.02a2.012 2.012 0 0 0-.311-.161c-.006 0-.028.016-.047.037zM23.071 1.906c-.037.014-.104.083-.104.106 0 .01-.014.028-.03.043-.039.033-.039.116 0 .183s.039.132 0 .171a.11.11 0 0 0-.03.061c0 .018-.008.033-.018.033s-.024.028-.033.061c-.02.09.045.236.118.267.03.012.055.03.055.041 0 .055.228-.01.271-.079.022-.035.114-.03.128.006.008.016.024.03.041.03s.028.014.028.03.01.03.02.03c.028 0 .026-.055-.004-.065-.014-.006-.018-.028-.01-.061.012-.047.028-.057.106-.069.051-.006.092-.018.092-.026s.022-.028.051-.043c.096-.051.118-.271.035-.346-.073-.067-.148-.102-.216-.102-.079 0-.132-.041-.146-.12-.018-.081-.14-.165-.24-.163a.44.44 0 0 0-.112.012zM24.489 1.967a.506.506 0 0 0 .014.138.351.351 0 0 1-.006.203.344.344 0 0 1-.049.114.28.28 0 0 0-.045.061c-.026.055 0 .14.045.14.012 0 .024.012.024.024 0 .014.033.059.071.098s.071.081.071.096c0 .016.014.033.03.039.016.008.03.024.03.041 0 .014.012.035.026.043.022.016.049.055.096.148.012.022.03.061.045.085a.576.576 0 0 1 .026.193c.002.151.039.23.106.23.014 0 .026.008.026.018s.018.026.041.033c.022.006.041.024.041.041 0 .014.012.03.026.035.016.006.024.065.024.197 0 .159-.006.191-.035.208-.02.012-.037.035-.037.053 0 .035.09.128.124.128.018 0 .028.102.02.207-.004.039.006.057.024.057.016 0 .035.014.043.03.006.016.028.03.051.03s.053.014.071.03c.016.016.039.03.049.03s.028.024.043.055c.024.051.02.059-.033.102a.206.206 0 0 1-.114.047c-.03 0-.09.018-.13.041a.409.409 0 0 1-.1.041c-.014 0-.028.014-.037.03-.006.016-.02.03-.033.03s-.049.026-.081.061c-.033.033-.069.061-.081.061a.02.02 0 0 0-.02.02c0 .01-.018.039-.041.061s-.049.041-.061.041c-.01 0-.02.014-.02.03a.05.05 0 0 1-.03.043c-.016.008-.03.024-.03.041s-.01.028-.022.028c-.01 0-.03.026-.041.061-.012.033-.028.061-.037.061a.339.339 0 0 0-.063.092l-.051.092.043.041c.049.051.413.112.557.096.307-.037.419-.065.549-.138.016-.01.051-.026.077-.039.024-.01.045-.028.045-.041 0-.01.014-.02.03-.02s.03-.01.03-.02c0-.033.071-.096.128-.108.045-.012.057-.004.094.067.024.047.043.102.043.124s.014.055.03.071c.016.018.03.049.03.071s.014.045.03.051c.016.008.03.024.03.037 0 .014.018.045.041.069s.041.051.041.063c0 .01.014.022.03.03.016.006.03.024.03.043 0 .016.01.03.022.03.039 0-.016.297-.059.323-.012.006-.028.039-.035.069-.008.03-.026.055-.043.055s-.028.014-.028.03c0 .018-.016.051-.037.073a.352.352 0 0 0-.065.09c-.024.045-.02.053.053.116.165.14.248.236.262.297.006.037.022.065.033.065.033 0 .022.433-.014.519-.039.094-.024.157.043.193.028.014.051.035.051.045 0 .008.012.016.026.016.028 0 .116.087.116.118 0 .01.014.024.03.033.016.006.03.03.03.053s.012.047.028.053c.016.006.037.039.043.071.02.087.071.075.071-.018.002-.041.014-.112.03-.157s.03-.094.03-.108c0-.026.071-.106.098-.106.026-.002.106-.077.106-.104a1.54 1.54 0 0 0-.114-.269.28.28 0 0 1-.028-.085.271.271 0 0 0-.028-.085c-.087-.173-.118-.439-.063-.535.043-.073.039-.175-.01-.22a.154.154 0 0 1-.045-.085c-.004-.039.006-.051.059-.065.055-.014.069-.03.087-.104l.043-.157c.01-.039.02-.1.022-.132.006-.051.016-.063.063-.067.039-.004.067.006.087.03.02.028.026.03.026.006a.14.14 0 0 0-.028-.069c-.047-.063-.039-.153.016-.173.043-.018.043-.02-.02-.043-.035-.012-.069-.037-.075-.053s-.024-.028-.043-.028c-.016 0-.03-.016-.03-.037s-.014-.055-.03-.077a.155.155 0 0 1-.03-.081.168.168 0 0 0-.03-.081.14.14 0 0 1-.03-.061c0-.024-.057-.098-.187-.238a.378.378 0 0 1-.077-.1c0-.039.075-.096.157-.116.047-.012.092-.033.098-.043.006-.012.03-.02.051-.02s.051-.012.065-.026a.228.228 0 0 1 .063-.041c.018-.006.035-.022.035-.035 0-.01.012-.02.028-.02.039 0 .358-.325.358-.366 0-.012.008-.02.018-.02s.051-.065.092-.146c.075-.151.073-.199-.006-.199a.094.094 0 0 1-.059-.026c-.018-.016-.128-.026-.36-.033-.275-.004-.344 0-.399.026-.037.018-.079.033-.098.033s-.081.033-.142.071a1.17 1.17 0 0 1-.116.071.278.278 0 0 0-.069.061c-.033.033-.065.061-.073.061s-.03.014-.051.033c-.03.028-.037.024-.077-.039a.33.33 0 0 1-.043-.12c0-.028-.014-.063-.03-.077s-.03-.047-.03-.073c0-.026-.01-.049-.02-.049-.012 0-.033-.024-.047-.057a.436.436 0 0 0-.079-.11c-.033-.03-.057-.065-.057-.077 0-.01-.014-.02-.03-.02s-.03-.008-.03-.02a.445.445 0 0 0-.083-.106c-.09-.094-.087-.085-.047-.305.01-.065.006-.079-.024-.09a1.35 1.35 0 0 1-.212-.094l-.059-.03a.452.452 0 0 1-.173-.201c-.008-.033-.024-.065-.037-.071-.01-.006-.024-.069-.03-.138s-.02-.13-.028-.136c-.01-.006-.018-.047-.018-.09 0-.09-.03-.185-.067-.208a.18.18 0 0 0-.073-.016c-.077 0-.201-.087-.401-.281-.035-.033-.043-.03-.053.01zM15.876 2.103c-.006.028-.024.055-.041.061s-.028.024-.028.043c0 .016-.01.03-.02.03-.012 0-.049.026-.081.061-.033.033-.075.061-.094.061s-.055.018-.083.041a.193.193 0 0 1-.077.041c-.037 0-.051.069-.051.267 0 .11-.012.203-.03.248a.433.433 0 0 0-.03.124c0 .026-.014.053-.03.061a.048.048 0 0 0-.03.043c0 .016-.014.03-.03.03s-.03.01-.03.022c0 .033-.098.12-.132.12-.016 0-.035.01-.041.02a.248.248 0 0 1-.083.051c-.059.024-.069.039-.069.098 0 .045.012.075.03.083.016.006.03.026.03.045s.012.057.028.085c.045.09.075.224.098.456.012.122.03.22.041.22.008 0 .016-.014.016-.03s.018-.049.041-.071c.022-.022.041-.055.041-.071s.01-.03.02-.03c.012 0 .03-.02.043-.047a.72.72 0 0 1 .045-.087c.035-.059.232-.252.258-.252a.02.02 0 0 0 .02-.02c0-.01.028-.033.061-.051.061-.03.081-.096.041-.122-.01-.006-.02-.071-.02-.144s.008-.13.02-.13.02-.014.02-.035a.77.77 0 0 1 .122-.26c.012-.006.02-.03.02-.053 0-.02.008-.039.016-.039a.561.561 0 0 0 .126-.183c0-.008.014-.02.03-.028a.048.048 0 0 0 .03-.043c0-.016.01-.03.02-.03.041 0 .018-.053-.061-.142l-.081-.092v-.199c0-.161-.006-.197-.03-.197-.016 0-.035.022-.043.049zM16.541 2.28a.335.335 0 0 0-.106.094c-.047.071-.053.226-.008.242.016.008.03.022.03.037 0 .026.073.094.102.094.024 0 .053.067.092.222.033.124.081.175.185.195.151.026.25-.028.323-.187.028-.063.057-.09.098-.098.049-.012.055-.022.055-.098 0-.053.016-.104.041-.136.028-.037.041-.083.041-.165 0-.098-.008-.126-.055-.179-.049-.055-.069-.063-.157-.063a.465.465 0 0 0-.187.041c-.075.037-.096.039-.179.018-.053-.012-.1-.03-.106-.041-.016-.028-.092-.016-.169.024zM18.403 2.7a.17.17 0 0 0-.069.039c-.014.016-.041.028-.057.028s-.028.012-.028.026c0 .014-.018.047-.041.071s-.041.053-.041.063c0 .012-.014.028-.033.039-.026.014-.028.041-.018.14.014.122.016.124.1.161.045.02.094.051.106.067.016.02.067.026.179.026.134-.002.165-.01.207-.049.026-.026.049-.059.049-.073 0-.012.012-.024.026-.024s.037-.028.049-.061c.014-.041.037-.061.063-.061.051 0 .106-.02.106-.039 0-.008-.035-.035-.079-.059s-.09-.071-.104-.106c-.014-.033-.033-.061-.043-.061s-.018-.014-.018-.03a.03.03 0 0 0-.03-.03c-.014 0-.037-.014-.045-.03-.018-.03-.21-.057-.279-.037zM21.666 2.726c0 .01.037.02.081.02s.081-.01.081-.02c0-.012-.037-.02-.081-.02s-.081.008-.081.02zM21.869 2.785c0 .02.096.043.11.026.006-.006.006-.018 0-.026-.014-.024-.11-.024-.11 0zM21.991 2.846c0 .01.024.033.053.053.051.033.051.035.016.073-.024.026-.043.033-.057.018a.69.69 0 0 0-.214-.018c-.21 0-.207.035.002.037.063.002.118.012.122.024.01.028.146.057.273.059.055 0 .112.01.124.022.022.022.183.03.205.01.006-.008-.008-.018-.033-.026-.024-.006-.045-.02-.045-.03 0-.026-.085-.096-.118-.098-.014 0-.041-.018-.059-.041-.02-.022-.051-.041-.069-.041s-.045-.014-.059-.03c-.026-.033-.142-.043-.142-.012zM23.578 2.978c0 .018.01.033.02.033.012 0 .02-.008.02-.018a.041.041 0 0 0-.02-.033c-.01-.006-.02.002-.02.018zM23.623 3.056c.012.037.057.043.057.008 0-.018-.014-.033-.033-.033s-.028.01-.024.024zM20.209 3.147a.366.366 0 0 1-.041.098.142.142 0 0 0-.028.067c0 .028-.022.059-.096.132-.065.065-.104.096-.122.096a.34.34 0 0 0-.073.03c-.075.039-.437.077-.574.061-.116-.016-.136-.004-.11.065.014.039.033.047.1.047.053 0 .087.01.094.028.006.016.039.037.071.043.033.008.059.02.059.03s.026.022.059.03c.033.006.065.026.071.043s.028.028.047.028c.02 0 .067.026.104.061a.568.568 0 0 0 .075.061c.014 0 .112.096.112.11 0 .008.022.039.051.069s.057.077.065.106c.006.026.03.067.051.09s.037.047.037.055c0 .03.092.035.151.008.148-.067.616-.118.958-.106.287.012.496.057.515.112.004.014.02.024.037.024.028 0 .094.045.148.106.016.02.043.037.057.037s.026.008.026.02a.3.3 0 0 0 .067.087c.092.096.136.155.136.177 0 .012.008.02.018.02s.024.022.03.051c.018.073.096.118.163.094.028-.012.053-.03.053-.043 0-.01.012-.02.026-.02.012 0 .059-.033.102-.071s.085-.071.098-.071c.01 0 .018-.008.018-.016s.045-.039.102-.067c.055-.026.102-.055.102-.065 0-.008.059-.043.132-.077s.132-.071.132-.081c0-.01.016-.018.037-.018s.055-.014.077-.03a.18.18 0 0 1 .096-.03c.03 0 .055-.008.055-.016 0-.022.26-.098.431-.126.075-.012.212-.014.309-.008.12.01.175.008.175-.008 0-.012-.051-.028-.112-.035-.061-.008-.118-.022-.122-.033-.006-.008-.055-.022-.108-.03s-.12-.026-.151-.041a.285.285 0 0 0-.112-.028c-.033 0-.075-.012-.098-.028s-.079-.039-.128-.053c-.047-.014-.085-.035-.085-.045 0-.008-.014-.016-.03-.016s-.065-.018-.106-.041c-.043-.022-.087-.041-.102-.041s-.026-.01-.026-.02c0-.012-.016-.02-.037-.02a.163.163 0 0 1-.087-.041.63.63 0 0 0-.144-.1c-.033-.016-.057-.037-.057-.047 0-.008-.014-.016-.03-.016s-.03-.014-.03-.03-.018-.03-.041-.03-.041-.012-.041-.026c0-.012-.028-.043-.061-.065s-.061-.049-.061-.059c0-.01-.024-.041-.053-.067-.039-.035-.067-.047-.102-.039-.026.008-.049.022-.049.033 0 .012-.014.02-.03.02s-.03.008-.03.016c0 .024-.096.065-.153.065-.026 0-.051.01-.055.024-.01.03-.531.033-.57.002a.342.342 0 0 0-.124-.033.553.553 0 0 1-.157-.045.322.322 0 0 0-.12-.03c-.033 0-.067-.01-.073-.02-.006-.012-.053-.03-.104-.043-.049-.012-.09-.03-.09-.041s-.026-.018-.059-.018c-.035 0-.065-.008-.073-.018a.345.345 0 0 0-.112-.053c-.057-.018-.102-.043-.102-.053s-.026-.018-.061-.018c-.033 0-.061-.01-.061-.022 0-.01-.026-.03-.061-.041-.033-.012-.061-.03-.061-.041s-.026-.018-.061-.018c-.049 0-.063.01-.073.055zM23.7 3.123c0 .016.01.03.02.03.012 0 .02-.014.02-.03s-.008-.03-.02-.03c-.01 0-.02.014-.02.03zM23.09 3.316c0 .01.035.02.077.018.061 0 .067-.004.035-.018-.057-.024-.112-.024-.112 0zM17.648 3.377c-.008.012.014.02.055.018.055 0 .061-.004.026-.018-.055-.024-.067-.024-.081 0zM23.242 3.377c-.008.012.024.02.085.02.071 0 .09-.006.067-.02-.041-.026-.136-.026-.153 0z"/><path d="M24.145 3.389c-.018.024-.049.03-.104.022-.071-.01-.077-.006-.077.037 0 .069-.02.112-.053.112-.039 0-.035.02.012.081a.187.187 0 0 1 .041.094c0 .104.128.273.203.273.02 0 .047.014.061.03.033.039.102.039.159 0 .065-.047.273-.049.317-.004.039.037.134.047.134.014 0-.01-.022-.024-.051-.033-.028-.006-.051-.024-.051-.041s-.012-.028-.028-.028c-.033 0-.053-.087-.053-.236 0-.059-.008-.114-.02-.12-.01-.006-.02-.028-.02-.047 0-.039-.083-.126-.12-.126-.012 0-.022-.014-.022-.03 0-.045-.289-.045-.328.002zM17.501 3.46c.028.016.045.016.061 0s.006-.022-.037-.022c-.053.002-.057.004-.024.022zM23.472 3.452a.11.11 0 0 0 .051 0c.012-.006.002-.01-.026-.01s-.039.004-.024.01zM17.129 3.58c0 .01.022.02.049.02.028 0 .057-.01.063-.02.008-.012-.014-.02-.049-.02s-.063.008-.063.02zM17.739 3.599a.393.393 0 0 0-.108.067c-.047.043-.055.069-.055.157 0 .114-.024.155-.12.199-.051.022-.051.024-.008.037.053.016.073.106.035.161-.037.055-.037.185.002.224.016.016.03.043.03.057 0 .035.106.081.189.083.071.002.197-.045.197-.073 0-.01.02-.035.047-.057.033-.028.077-.037.181-.039.153 0 .24-.024.24-.069 0-.014.014-.039.03-.053.043-.035.043-.24 0-.256-.016-.006-.035-.028-.041-.051-.008-.02-.03-.039-.053-.039-.081 0-.197-.077-.212-.142-.008-.033-.022-.061-.033-.061s-.018-.012-.018-.026c0-.083-.189-.157-.305-.118zM16.858 3.694c-.018.02.004.049.039.049.016 0 .028-.014.028-.03 0-.03-.043-.043-.067-.018zM16.6 3.845c0 .01.008.02.018.02.012 0 .026-.01.033-.02.006-.012-.002-.02-.018-.02-.018 0-.033.008-.033.02zM16.159 3.881a.117.117 0 0 0-.067.037.087.087 0 0 1-.053.028c-.016 0-.028.014-.028.03a.05.05 0 0 1-.03.043c-.016.008-.03.024-.03.041 0 .037-.087.21-.106.212-.033 0-.157.094-.159.116 0 .014-.018.026-.041.026s-.041.008-.041.02c0 .028.075.026.085-.002.008-.026.177-.049.244-.033a.43.43 0 0 1 .118.075c.063.055.081.061.216.061.14 0 .148-.002.226-.077a.28.28 0 0 0 .096-.157c.018-.098.063-.173.104-.173a.03.03 0 0 0 .03-.03c0-.02-.02-.03-.059-.03-.065 0-.096-.049-.085-.142l.004-.051-.189-.002c-.104 0-.21.002-.234.008zM17.094 4.042c.03.004.079.004.112 0 .03-.004.004-.008-.057-.008s-.087.004-.055.008zM13.146 4.29c-.014.008-.035.065-.043.126-.01.061-.028.175-.043.254-.028.146-.026.167.043.507.014.067.039.13.053.138s.026.039.026.067c0 .026.014.055.03.061.016.008.03.022.03.035s.041.061.092.11.092.106.092.13c0 .057-.073.114-.167.13-.043.008-.077.02-.077.03 0 .008-.03.022-.069.028-.039.008-.075.026-.081.043s-.024.03-.039.03c-.016 0-.089.059-.165.132s-.144.132-.155.132c-.012 0-.02.012-.02.028 0 .039-.085.051-.248.039-.126-.01-.138-.008-.138.026 0 .051-.112.269-.167.328-.024.026-.055.047-.071.047-.014 0-.026.008-.026.018s-.022.024-.049.03a.175.175 0 0 0-.077.039c-.03.028-.23.073-.407.09-.116.01-.118.01-.159.102a.54.54 0 0 0-.041.122c0 .014-.014.033-.03.039-.016.008-.03.022-.03.037-.002.028-.132.175-.159.175s-.049.085-.026.108c.008.008.043.002.075-.016.077-.041.26-.041.301 0 .016.016.039.03.049.03s.035.018.055.041c.02.022.053.041.075.041.02 0 .055-.018.077-.041s.051-.041.061-.041c.012 0 .02-.008.02-.02 0-.01.024-.033.057-.049a.886.886 0 0 0 .138-.108.94.94 0 0 1 .214-.144.581.581 0 0 1 .313-.069c.179-.006.183-.008.189-.057.004-.028.02-.059.037-.067s.028-.03.028-.045c0-.016.01-.03.022-.03.014 0 .037-.016.051-.037.02-.028.057-.035.197-.035.136 0 .181.008.212.035.049.045.108.047.108.006 0-.016.014-.03.03-.03s.03-.008.03-.018c0-.043.203-.132.203-.09 0 .01.008.03.018.045.016.024.026.022.061-.02a.278.278 0 0 0 .053-.104c.008-.033.024-.063.037-.071a.218.218 0 0 0 .047-.055c.039-.073.083-.087.126-.041a.248.248 0 0 1 .055.092c.028.096.138.313.165.33a.054.054 0 0 1 .028.043c0 .024.132.165.238.25l.118.098c.083.069.293.191.328.193.014 0 .03-.024.039-.055.006-.03.024-.063.037-.071.041-.024.047-.688.008-.773a.728.728 0 0 1-.045-.134c-.008-.035-.022-.065-.033-.065s-.018-.016-.018-.037c0-.02-.018-.057-.041-.081s-.041-.049-.041-.055c0-.018-.081-.092-.102-.092-.01 0-.02-.014-.02-.03 0-.014-.016-.039-.035-.049-.035-.02-.035-.024 0-.051.018-.014.035-.035.035-.047 0-.01.073-.041.163-.069.089-.026.163-.055.163-.065 0-.008.02-.024.047-.035.067-.03.124-.067.142-.098a.065.065 0 0 1 .045-.024c.016 0 .03-.012.03-.028s.022-.035.051-.041c.061-.016.214.02.214.049 0 .012.028.02.061.02.035 0 .061.01.061.022 0 .01.028.03.061.041.035.012.061.03.061.041s.014.018.03.018.049.018.071.041.067.041.104.041c.045 0 .065-.01.073-.041.006-.022.024-.041.039-.041.016 0 .028-.01.028-.02 0-.012.018-.039.041-.061s.051-.041.061-.041c.012 0 .02-.012.02-.026 0-.012.03-.043.067-.063.079-.047.417-.067.627-.039.136.018.222.002.222-.045 0-.012.018-.043.041-.067s.041-.053.041-.065c0-.01.014-.02.03-.02s.03-.01.03-.02c0-.012.024-.033.057-.047.03-.012.063-.035.071-.049s.039-.026.067-.026c.033 0 .055-.014.067-.047.014-.039.01-.047-.037-.057a.921.921 0 0 0-.159-.016c-.09-.002-.116-.012-.187-.077-.047-.041-.083-.085-.083-.1 0-.061-.175-.051-.214.01-.006.012-.035.022-.063.022-.026 0-.049.008-.049.018 0 .008-.043.028-.096.043a.617.617 0 0 0-.138.051c-.039.024-.094.035-.311.063-.055.008-.098.004-.112-.01-.012-.012-.043-.022-.067-.022s-.055-.014-.069-.03c-.02-.024-.03-.024-.077.006a.525.525 0 0 0-.077.055c-.138.122-.167.122-.175-.004l-.006-.098-.212-.043c-.185-.037-.214-.049-.23-.092-.024-.063-.03-.069-.061-.045-.063.049-.118.045-.146-.01l-.028-.055-.022.055c-.012.033-.03.057-.043.057-.01 0-.02.014-.02.03s-.012.03-.026.03c-.014 0-.061.018-.106.041s-.096.041-.114.041c-.018 0-.045.014-.059.03s-.039.03-.055.03c-.014 0-.055.026-.087.061a.35.35 0 0 1-.071.061.288.288 0 0 0-.067.061c-.033.033-.077.061-.098.061-.049 0-.1-.083-.118-.189-.014-.071-.03-.112-.118-.258a.697.697 0 0 0-.081-.106.285.285 0 0 1-.057-.065.709.709 0 0 0-.159-.155c-.008 0-.039-.024-.065-.057-.028-.03-.073-.067-.102-.081s-.087-.047-.132-.075c-.087-.053-.126-.061-.169-.033zM24.554 4.435c0 .01.028.02.061.02.035 0 .061-.01.061-.02 0-.012-.026-.02-.061-.02-.033 0-.061.008-.061.02zM28.42 5.832a2.886 2.886 0 0 0-.116.049.447.447 0 0 1-.112.039.084.084 0 0 0-.051.022c-.043.043-.429.081-.596.059-.039-.006-.075-.002-.081.01-.006.01.014.022.047.026.03.004.055.018.055.037 0 .016.018.028.039.028.022 0 .053.012.067.024a.856.856 0 0 0 .169.106.204.204 0 0 1 .057.047c.008.014.024.026.035.026s.053.037.096.081c.108.112.128.138.128.163 0 .01.012.02.028.02s.033.014.041.03c.008.024.053.03.222.03.161 0 .22.008.236.028a.18.18 0 0 0 .085.043c.033.008.059.02.059.03 0 .008.028.026.061.039.035.01.061.028.061.037s.041.035.092.057.092.045.092.053c0 .006.037.039.079.069.094.063.146.057.218-.03.067-.077.203-.114.321-.083.114.028.114.028.114-.004-.002-.026-.069-.116-.09-.116-.028 0-.175-.171-.175-.205 0-.022-.008-.039-.018-.039s-.024-.024-.033-.057c-.024-.1-.071-.124-.236-.124-.189 0-.433-.035-.441-.063-.004-.01-.026-.02-.049-.02-.065 0-.23-.199-.271-.325a.161.161 0 0 0-.049-.075c-.037-.028-.039-.028-.083-.012zM27.317 5.954c.014.006.033.004.039-.002.008-.006-.004-.012-.026-.01-.022 0-.028.006-.012.012zM27.382 6.408c0 .01.01.02.02.02a.02.02 0 0 0 .02-.02c0-.012-.008-.02-.02-.02a.02.02 0 0 0-.02.02zM27.443 6.477c0 .018.014.033.033.033.035 0 .028-.045-.008-.057-.014-.004-.024.006-.024.024zM27.504 6.579a.11.11 0 0 0 .03.073c.02.016.03.063.03.136 0 .077-.008.112-.03.12-.016.008-.03.02-.03.03s-.018.037-.041.059c-.022.022-.041.059-.041.081s-.012.059-.024.081c-.02.03-.02.045 0 .065.012.012.024.049.024.079 0 .067.096.181.153.181.022 0 .059.014.079.03.022.016.055.03.073.03.057 0 .102.071.116.179.016.142.047.112.047-.045 0-.104.008-.136.041-.165.055-.049.146-.022.163.049.006.028.022.053.037.059.035.01.03-.087-.006-.126-.022-.022-.03-.077-.03-.207 0-.146-.008-.189-.045-.248-.057-.094-.11-.146-.146-.146-.087 0-.277-.169-.277-.246 0-.01-.012-.018-.028-.018s-.035-.022-.041-.051c-.016-.065-.053-.067-.053-.002z"/><path d="M13.195 6.976c-.008.014-.01.03-.004.037.018.018.039-.008.028-.037-.008-.022-.012-.022-.024 0zM13.534 7.11c0 .045.004.061.008.035a.275.275 0 0 0 0-.081c-.006-.018-.01.002-.008.047zM12.983 7.287c-.014.014-.077.022-.161.02a.414.414 0 0 0-.207.03c-.094.049-.165.116-.165.155 0 .018-.008.039-.02.045-.01.006-.02.053-.02.102s.01.096.02.102c.012.006.02.067.02.134 0 .12 0 .12.061.12.071 0 .1.045.089.136-.004.037.002.067.012.067.012 0 .02-.028.02-.061 0-.039.01-.061.028-.061.016 0 .033-.012.039-.028s.039-.035.073-.043c.035-.008.063-.022.063-.033s.02-.018.047-.018c.059-.002.151-.083.169-.151.006-.028.02-.053.03-.053.028 0 .02-.169-.012-.224a.444.444 0 0 1-.03-.159c0-.108-.012-.126-.057-.081zM13.461 7.332c-.02.051-.018.155.004.155.024 0 .041-.102.024-.151-.014-.037-.016-.037-.028-.004zM29.355 7.36c-.061.016-.142.085-.142.12 0 .039-.085.087-.155.087a.312.312 0 0 0-.26.161c-.041.098-.041.126.004.207.051.096.1.14.153.14.063 0 .136.079.136.149 0 .03.01.055.02.055.012 0 .02-.014.02-.03 0-.02.02-.03.061-.03.037 0 .067.012.073.03.008.016.024.03.039.03s.03.014.039.03c.008.022.043.03.134.03.096 0 .122-.006.122-.03 0-.016.012-.03.028-.03.045 0 .094-.094.094-.181a.44.44 0 0 0-.043-.165c-.024-.047-.039-.102-.033-.128.006-.024.02-.081.033-.126.059-.226-.098-.38-.323-.319zM16.804 7.558c-.02.024-.016.033.03.051.028.01.063.02.073.02s.018.008.018.018c0 .01.028.028.061.041.035.01.061.03.061.041 0 .012.01.022.02.022.012 0 .045.024.071.055l.049.057.002 2.722v2.722l-.049.108c-.041.089-.065.114-.153.157-.057.026-.104.059-.104.071 0 .014.057.028.138.037.163.016 1.07.016 1.137 0 .071-.018.057-.063-.026-.075-.079-.014-.232-.155-.232-.218a.263.263 0 0 0-.024-.085c-.02-.037-.026-.348-.026-1.341 0-1.221.002-1.294.037-1.33.033-.033.043-.033.09-.008.057.03.157.112.264.216.039.037.077.067.09.067.01 0 .024.014.03.03.008.016.02.03.03.03.012 0 .045.024.075.055.03.033.102.094.157.138a3.941 3.941 0 0 1 .244.213c.004 0 .049.041.102.092a.631.631 0 0 0 .134.102c.022.008.039.026.039.043s.012.028.026.028c.014 0 .049.026.075.061a.272.272 0 0 0 .065.061c.008 0 .102.087.207.193.108.106.201.193.212.193s.083.063.165.142c.079.077.155.142.165.142.012 0 .02.008.02.02 0 .02.073.102.09.102.018 0 .236.228.236.246 0 .01.014.018.03.018s.03.014.03.03.01.03.02.03c.026 0 .183.161.183.187 0 .008.014.016.03.016s.03.014.03.03.008.03.02.03c.067 0 .14.336.085.391-.014.014-.024.049-.024.079 0 .069.035.079.293.079.23 0 .462.037.486.075.008.014.039.026.063.026.026 0 .053.012.059.028s.039.035.073.043a.166.166 0 0 1 .085.043c.012.016.045.028.071.028s.049.008.049.02c0 .01.012.02.026.02s.061.018.106.041a.4.4 0 0 0 .126.041c.026 0 .053.012.059.028s.051.035.102.043c.049.006.09.02.09.033 0 .01.016.018.037.018s.071.018.116.041a.4.4 0 0 0 .122.041c.024 0 .061.014.083.03.02.016.067.03.104.03.035 0 .067.01.071.022.004.01.071.043.148.069a.596.596 0 0 1 .163.077.174.174 0 0 0 .057.041c.018.006.035.022.035.035 0 .01.014.02.03.02s.03.014.03.03.014.03.03.03.03.012.03.028.014.033.03.041c.016.006.03.024.03.043 0 .016.01.03.02.03.012 0 .033.024.047.055.012.033.035.065.049.073s.026.037.026.061c0 .026.01.057.02.067.037.037.102.311.102.429 0 .142-.063.464-.098.498a.097.097 0 0 0-.024.061c0 .039-.323.382-.36.382-.01 0-.037.018-.057.041s-.053.041-.075.041c-.02 0-.037.008-.037.02 0 .01-.024.026-.055.033a.251.251 0 0 0-.085.037c-.033.026-.197.065-.389.096-.216.033-.637-.018-.777-.096-.028-.016-.071-.028-.094-.028s-.045-.014-.053-.03c-.006-.018-.037-.03-.073-.03-.033 0-.061-.006-.061-.016a.39.39 0 0 0-.118-.075.608.608 0 0 1-.132-.087.065.065 0 0 0-.045-.024c-.016 0-.03-.014-.03-.03s-.012-.03-.024-.03c-.033-.002-.24-.21-.24-.242 0-.012-.014-.022-.03-.022s-.03-.016-.03-.037c0-.02-.022-.059-.051-.085-.043-.039-.059-.045-.087-.026-.018.012-.033.039-.028.059.004.022.014.165.026.319.024.313.071.488.132.498a.81.81 0 0 0 .252.052.856.856 0 0 1 .207.041.61.61 0 0 0 .195.033c.067 0 .128.01.142.024.02.02.181.028.633.033.527.006.608.002.633-.024.016-.022.059-.033.122-.033.061 0 .106-.012.122-.03.014-.016.037-.03.051-.03.039 0 .323-.148.342-.177.008-.014.026-.026.039-.026.026 0 .301-.281.301-.307 0-.01.014-.018.03-.018s.03-.018.03-.039c0-.02.014-.043.03-.051.016-.006.03-.03.03-.053s.014-.047.03-.053c.016-.008.03-.02.03-.033 0-.022.069-.185.112-.264.016-.028.03-.075.03-.102s.012-.061.026-.073c.033-.035.045-.488.016-.625-.047-.226-.057-.267-.079-.305a2.652 2.652 0 0 1-.073-.157.6.6 0 0 0-.071-.128c-.012-.006-.022-.03-.022-.053 0-.02-.014-.039-.03-.039s-.03-.018-.03-.041c0-.022-.012-.041-.024-.041-.014 0-.045-.028-.067-.061s-.049-.061-.057-.061a.272.272 0 0 1-.075-.061c-.033-.035-.069-.061-.081-.061-.01 0-.02-.012-.02-.026 0-.024-.02-.037-.218-.132a5.726 5.726 0 0 1-.155-.077.274.274 0 0 0-.098-.028.33.33 0 0 1-.114-.041.38.38 0 0 0-.112-.041c-.02 0-.037-.01-.037-.02 0-.012-.01-.02-.022-.02a.552.552 0 0 1-.118-.043 3.626 3.626 0 0 0-.155-.069c-.033-.014-.104-.045-.155-.069s-.104-.043-.118-.043c-.012 0-.022-.01-.022-.02 0-.012-.012-.02-.026-.02s-.059-.018-.102-.041c-.041-.022-.09-.041-.106-.041s-.03-.008-.03-.02c0-.01-.024-.026-.055-.033a.191.191 0 0 1-.083-.043.11.11 0 0 0-.065-.026.951.951 0 0 1-.311-.177.06.06 0 0 0-.045-.026c-.016 0-.03-.014-.03-.03s-.014-.03-.03-.03-.03-.01-.03-.02c0-.012-.026-.049-.061-.081-.033-.033-.061-.067-.061-.077s-.018-.035-.041-.055c-.022-.02-.041-.051-.041-.067a.228.228 0 0 0-.028-.081c-.087-.171-.128-.647-.063-.769a.3.3 0 0 0 .03-.102c0-.024.014-.055.03-.069s.03-.047.03-.073c0-.026.01-.049.02-.049.012 0 .033-.024.047-.057.012-.03.035-.063.049-.071s.026-.03.026-.045c0-.016.014-.03.03-.03s.03-.014.03-.03.014-.03.03-.03.03-.014.03-.03a.03.03 0 0 1 .03-.03c.014 0 .037-.012.045-.026s.041-.037.073-.049c.03-.014.055-.035.055-.047 0-.01.016-.02.039-.02.02 0 .049-.014.063-.03s.047-.03.073-.03a.136.136 0 0 0 .077-.03c.016-.016.055-.03.087-.03s.081-.016.108-.035c.045-.033.104-.037.46-.037.362 0 .415.004.45.035a.195.195 0 0 0 .122.037c.055 0 .087.01.096.03.006.016.035.03.063.03.03 0 .067.014.083.03.018.016.049.03.071.03.02 0 .039.01.039.022 0 .01.033.035.071.051s.071.039.071.049c0 .012.014.02.03.02s.03.014.03.03.014.03.03.03.03.014.03.03.014.03.03.03.03.008.03.016c0 .01.033.051.071.092s.071.081.071.094c0 .01.022.045.049.073.037.039.063.051.092.041.041-.012.043-.026.043-.415 0-.486.004-.478-.25-.498a.715.715 0 0 1-.197-.033c-.02-.01-.092-.02-.157-.02s-.199-.014-.301-.03a3.452 3.452 0 0 0-.897 0c-.11.016-.25.03-.307.03-.059 0-.108.008-.108.02 0 .01-.035.024-.075.033-.043.006-.098.024-.122.041s-.065.028-.09.028a.13.13 0 0 0-.077.028 1.03 1.03 0 0 1-.138.083c-.059.03-.108.063-.108.073s-.01.018-.022.018c-.039 0-.344.262-.344.295a.2.2 0 0 1-.041.055c-.09.102-.102.12-.102.146 0 .016-.01.037-.022.043a.6.6 0 0 0-.071.128 2.354 2.354 0 0 1-.079.173c-.016.033-.03.083-.03.114s-.01.065-.022.077a.412.412 0 0 0-.03.14c-.016.187-.024.212-.071.212-.022 0-.067-.028-.1-.061a.299.299 0 0 0-.069-.061c-.01 0-.148-.12-.207-.179-.022-.024-.049-.045-.057-.045-.02 0-.094-.079-.094-.102a.02.02 0 0 0-.02-.02c-.012 0-.049-.028-.081-.061-.033-.035-.069-.061-.081-.061-.01 0-.02-.01-.02-.02 0-.028-.216-.244-.244-.244-.01 0-.02-.01-.02-.02 0-.012-.018-.039-.041-.061s-.049-.041-.061-.041c-.01 0-.02-.006-.02-.016 0-.022-.22-.248-.242-.248-.01 0-.022-.018-.028-.041s-.024-.041-.043-.041c-.018 0-.033-.01-.033-.02 0-.012-.018-.039-.041-.061s-.049-.041-.061-.041c-.01 0-.02-.01-.02-.022s-.059-.079-.132-.151a1.81 1.81 0 0 1-.132-.14.705.705 0 0 0-.092-.102c-.094-.096-.124-.165-.104-.232.008-.02.1-.128.205-.236.106-.11.193-.207.193-.218s.014-.018.03-.018.03-.014.03-.03.012-.03.026-.03c.03 0 .116-.089.116-.12 0-.012.014-.022.03-.022s.03-.014.03-.03.01-.03.02-.03c.012 0 .061-.041.11-.089s.124-.114.167-.146c.045-.033.132-.112.197-.177a.699.699 0 0 1 .136-.116c.012 0 .02-.014.02-.03s.012-.03.026-.03c.014 0 .049-.026.075-.061a.272.272 0 0 1 .065-.061c.006 0 .045-.03.085-.067.039-.035.096-.083.126-.106.028-.022.083-.069.118-.102.081-.079.228-.193.246-.193a.296.296 0 0 0 .079-.061.982.982 0 0 1 .242-.189c.03-.012.055-.037.055-.049 0-.014.008-.026.02-.026a.83.83 0 0 0 .183-.118.408.408 0 0 1 .179-.085.276.276 0 0 0 .098-.03.57.57 0 0 1 .157-.043c.098-.014.106-.02.079-.065-.022-.035-1.455-.026-1.489.008-.018.018-.01.037.03.077.028.028.061.053.071.053.012 0 .02.075.02.169 0 .13-.008.179-.035.216-.067.085-.187.205-.21.205-.01 0-.02.014-.02.03s-.008.03-.018.03a.671.671 0 0 0-.185.183c0 .012-.008.02-.02.02-.01 0-.051.03-.087.065-.039.037-.09.081-.114.1s-.122.108-.218.199a1.436 1.436 0 0 1-.193.165c-.01 0-.018.014-.018.03s-.008.03-.02.03c-.01 0-.092.073-.181.163-.087.089-.171.163-.183.163s-.022.014-.022.03-.014.03-.03.03-.03.014-.03.03-.01.03-.022.03c-.02 0-.071.043-.256.218-.039.037-.079.067-.09.067s-.018.014-.018.03-.008.03-.02.03c-.024 0-.102.075-.102.1 0 .01-.018.022-.041.028s-.041.024-.041.043c0 .018-.008.033-.018.033-.012 0-.045.022-.075.051-.061.057-.14.067-.159.018a34.203 34.203 0 0 1-.012-1.217V7.798l.047-.053c.024-.03.057-.055.071-.055s.024-.008.024-.02c0-.01.041-.03.092-.043.092-.022.112-.045.067-.071a9.075 9.075 0 0 0-.698-.022c-.582-.006-.679-.002-.702.024zM28.175 7.694c0 .033.01.057.02.057.026 0 .026-.041 0-.081-.016-.024-.02-.018-.02.024zM13.386 7.781c0 .059-.01.096-.03.106-.016.01-.039.059-.049.108-.02.106-.057.21-.096.289-.016.028-.028.069-.028.087s-.012.059-.028.087c-.053.1-.114.24-.114.264 0 .014-.008.024-.018.024s-.028.026-.041.061c-.01.033-.028.061-.037.061-.01 0-.028.024-.041.055a1.248 1.248 0 0 1-.289.36c-.118.106-.144.134-.144.155 0 .01.008.02.016.02s.026.024.041.055c.012.033.045.096.071.14.047.079.081.26.079.405a2.172 2.172 0 0 1-.071.468.572.572 0 0 0-.035.126c0 .026-.008.047-.018.047s-.024.037-.033.079a.323.323 0 0 1-.041.118c-.016.02-.03.061-.03.089s-.014.069-.03.092c-.016.02-.03.059-.03.083s-.014.057-.03.075c-.016.016-.03.053-.03.081s-.008.053-.018.053c-.02 0-.124.195-.124.236 0 .016-.01.028-.022.028s-.018.024-.014.055c.004.047.018.059.077.067.075.012.224.079.224.104 0 .008.018.018.041.024s.041.024.041.043c0 .018.006.033.016.033.022 0 .098.161.126.275.014.055.03.205.037.33.004.126.016.23.026.23.022 0 .092-.144.11-.224a.16.16 0 0 1 .043-.083c.016-.012.028-.041.028-.061s.01-.043.022-.049a.221.221 0 0 0 .041-.057c.053-.118.14-.238.173-.238.016 0 .028-.01.028-.02 0-.012.018-.039.041-.061s.051-.041.061-.041c.012 0 .02-.012.02-.028s.028-.035.061-.043c.035-.008.061-.02.061-.03 0-.008.033-.022.073-.03l.073-.012-.008-.155c-.004-.098-.016-.159-.033-.165-.014-.004-.024-.051-.024-.122a.923.923 0 0 0-.03-.216c-.043-.138-.043-.616 0-.718a.407.407 0 0 0 .03-.122c0-.026.014-.063.03-.079a.125.125 0 0 0 .03-.071c0-.02.008-.039.016-.039.01 0 .047-.039.081-.087.1-.14.348-.38.391-.38.012 0 .037-.016.057-.037a.527.527 0 0 1 .071-.055c.028-.018.028-.026-.002-.098-.018-.041-.045-.075-.059-.075s-.026-.012-.026-.026c0-.012-.028-.051-.063-.083a.305.305 0 0 1-.071-.108c-.008-.026-.02-.047-.03-.047-.016 0-.055-.063-.098-.159-.012-.024-.03-.045-.043-.045-.01 0-.02-.018-.02-.039a.125.125 0 0 0-.03-.071c-.016-.016-.03-.035-.03-.043 0-.016-.075-.191-.112-.258-.016-.028-.03-.071-.03-.094s-.014-.055-.03-.073a.134.134 0 0 1-.03-.083.288.288 0 0 0-.035-.118.816.816 0 0 1-.043-.264c-.01-.195-.045-.281-.045-.106zM27.905 7.903a.895.895 0 0 0 .002.193l.016.132.012-.112a.767.767 0 0 0-.002-.193l-.014-.081-.014.061zM28.359 8.111c0 .02.01.051.02.067.014.022.02.014.02-.037 0-.035-.008-.065-.02-.065-.01 0-.02.016-.02.035zM11.398 8.131c-.037.018-.067.047-.067.061s-.012.026-.024.026c-.014 0-.045.057-.065.126-.037.114-.089.197-.128.199-.026.002-.1.069-.114.106-.006.02-.022.037-.035.037-.01 0-.02.041-.02.092 0 .067.008.092.03.092.016 0 .03.008.03.02 0 .01.02.041.047.065.041.043.065.047.23.047.149 0 .195.008.226.035.065.059.352.045.352-.016 0-.016.008-.028.018-.028.063 0 .073-.234.01-.287-.018-.014-.028-.063-.028-.128 0-.094-.008-.112-.059-.151a.185.185 0 0 1-.071-.11c-.016-.079-.061-.134-.149-.185-.075-.043-.098-.043-.183 0zM28.426 8.29c.008.043.022.083.033.089s.024.047.033.089c.008.041.022.075.033.075.03 0 .02-.138-.01-.157-.016-.008-.033-.047-.037-.085s-.018-.075-.035-.079c-.022-.008-.026.006-.016.067zM12.548 8.272c-.01.008-.016.033-.016.057 0 .028.006.035.022.018.012-.012.018-.039.014-.057-.002-.018-.012-.026-.02-.018zM27.913 8.32c-.004.098-.024.108-.189.092a1.074 1.074 0 0 0-.212-.002c-.083.018-.13.11-.13.254 0 .104.006.122.061.165a.212.212 0 0 1 .061.075c0 .014.01.026.022.026.016 0 .02.033.012.102-.018.161.049.275.187.323.059.018.085.016.159-.012.073-.03.096-.055.151-.165.051-.106.077-.136.138-.161a.412.412 0 0 0 .13-.092c.045-.049.055-.077.055-.167 0-.161-.079-.232-.295-.269-.102-.018-.102-.018-.126-.12-.014-.061-.024-.081-.024-.051zM12.472 8.487c0 .057.004.061.018.026.024-.057.024-.092 0-.092-.01 0-.02.03-.018.065zM12.411 8.666c0 .067.002.069.02.022.012-.033.012-.057-.002-.071s-.02.002-.018.049zM28.584 8.638c0 .022.006.028.012.012.006-.014.004-.033-.002-.039-.006-.008-.012.004-.01.026zM12.352 8.87c0 .039.004.055.01.035a.211.211 0 0 0 0-.071c-.006-.018-.01-.002-.01.037zM28.694 9.087a.487.487 0 0 1-.039.138.393.393 0 0 0-.047.295c.035.126.071.177.171.236.069.041.087.063.098.126.02.118.033.149.053.136.01-.008.018-.035.018-.063s.01-.071.024-.096c.028-.055.112-.136.14-.136.01 0 .024-.014.03-.03.008-.016.024-.03.041-.03s.028-.018.028-.039c0-.022.01-.043.022-.047.041-.014.049-.212.01-.269a.203.203 0 0 1-.033-.083c0-.016-.012-.03-.028-.03s-.033-.014-.041-.03c-.006-.016-.024-.03-.039-.03-.016 0-.057-.033-.094-.071-.073-.081-.094-.087-.124-.03-.026.049-.142.059-.142.012a.061.061 0 0 0-.018-.043c-.012-.006-.026.033-.033.085zM12.206 9.342c0 .055-.012.081-.041.098-.022.012-.041.035-.041.053 0 .016-.014.035-.03.041-.016.008-.03.02-.03.033 0 .01-.026.057-.059.104a.863.863 0 0 0-.071.13c-.008.022-.026.049-.043.055s-.03.033-.03.061c0 .026-.014.053-.03.061-.039.014-.043.163-.004.151.012-.006.026-.035.03-.065s.024-.073.047-.096c.02-.02.039-.051.039-.067 0-.033.069-.063.102-.043.01.006.02.043.02.077 0 .14.035.116.057-.041.012-.087.03-.161.043-.165s.022-.043.022-.085c0-.045.014-.132.03-.195.02-.075.022-.126.01-.149-.014-.024-.018-.014-.02.043zM29.803 9.905a.125.125 0 0 1-.03.071c-.016.016-.03.037-.03.045 0 .028-.092.151-.112.151-.012 0-.033.018-.047.041s-.043.041-.065.041c-.022 0-.041.014-.041.03s-.014.03-.03.03c-.039 0-.039-.008-.039.368-.002.35-.016.403-.146.539a.196.196 0 0 1-.153.073l-.09.006.004.201c.004.234.016.297.057.297.055 0 .132.047.132.081 0 .02.014.047.03.061s.03.053.03.085c0 .033.014.092.03.132.037.085.041.183.008.193-.012.004-.018.035-.014.067l.01.061.016-.067c.008-.035.028-.065.043-.065.018 0 .028-.022.028-.057 0-.03.018-.077.041-.106s.041-.075.041-.104c0-.03.014-.059.03-.067.016-.006.03-.028.03-.051s.014-.053.03-.071c.016-.016.03-.037.03-.047 0-.008.033-.053.071-.098s.071-.087.071-.098c0-.008.014-.014.03-.014s.03-.014.03-.03a.03.03 0 0 1 .03-.03c.02 0 .03-.02.03-.061 0-.037-.012-.067-.03-.073-.043-.016-.043-.309 0-.366a.204.204 0 0 0 .03-.106c0-.035.01-.065.02-.065.012 0 .03-.041.045-.092s.033-.092.041-.092.016-.018.016-.041.016-.057.037-.077c.053-.055.09-.169.063-.201-.012-.014-.03-.026-.041-.026-.033 0-.087-.069-.134-.165a.46.46 0 0 1-.047-.22c0-.098-.006-.124-.03-.124-.016 0-.03.018-.03.039zM28.228 10.18c-.008.041-.022.073-.033.073-.008 0-.024.028-.03.065a.257.257 0 0 1-.043.094c-.016.014-.028.041-.028.057s-.018.047-.041.069c-.022.022-.041.055-.041.071s-.008.03-.02.03c-.01 0-.02.01-.02.024 0 .043-.277.321-.319.321-.014 0-.026.008-.026.018s-.026.022-.059.028c-.092.018-.124.065-.124.179 0 .057.01.122.024.146s.03.104.039.177c.008.073.024.169.037.214.035.126.028.606-.008.696-.016.039-.03.089-.03.11s-.02.077-.045.124a.667.667 0 0 1-.122.181c-.02.02-.037.045-.037.053 0 .02-.222.23-.244.23-.012 0-.02.008-.02.018s-.026.028-.061.043c-.033.014-.061.033-.061.043 0 .008-.016.02-.037.028a.1.1 0 0 0-.059.057c-.022.047-.014.059.061.132.018.018.035.041.035.051 0 .008.016.035.037.057.022.02.051.065.067.096s.035.059.043.065a.83.83 0 0 1 .118.183c0 .012.01.02.022.02.01 0 .03.026.041.061.012.033.03.061.041.061s.018.014.018.03.018.065.041.106c.022.043.041.087.041.102s.008.026.018.026c.012 0 .026.043.035.094.006.051.026.098.041.104.018.006.028.043.028.096 0 .047.01.096.02.106.012.012.03.077.043.144.016.096.03.126.063.134.024.008.043 0 .049-.022.006-.018.028-.081.051-.136.02-.057.039-.12.039-.142s.014-.059.03-.079c.016-.022.03-.061.03-.085s.012-.071.028-.104c.063-.124.114-.246.114-.267 0-.012.006-.024.016-.028a.555.555 0 0 0 .1-.165c.006-.018.024-.035.039-.035.016 0 .028-.018.028-.041s.006-.041.016-.041a.34.34 0 0 0 .075-.092c.035-.051.073-.092.087-.092.012 0 .024-.012.024-.026a.335.335 0 0 1 .092-.092c.096-.069.114-.122.061-.167-.016-.014-.03-.041-.03-.061s-.012-.041-.028-.047c-.014-.006-.035-.037-.043-.069-.006-.03-.022-.063-.035-.069-.028-.018-.026-.623.002-.657a.404.404 0 0 0 .043-.134c.012-.061.028-.114.039-.12a.274.274 0 0 0 .028-.104c.006-.049.022-.094.033-.098.012-.004.022-.026.022-.051s.018-.079.041-.122a.352.352 0 0 0 .041-.114c0-.022.01-.047.02-.053.012-.006.03-.053.043-.104.012-.049.03-.089.041-.089s.018-.018.018-.039c0-.022.014-.053.03-.069a.248.248 0 0 0 .043-.083c.006-.028.02-.053.03-.053.028 0 .02-.081-.01-.114-.016-.016-.055-.028-.085-.028-.081 0-.273-.124-.273-.177 0-.014-.008-.026-.018-.026-.063 0-.14-.336-.151-.641-.004-.112-.01-.142-.037-.149-.024-.004-.037.014-.047.065zM11.752 10.184c-.02.02-.018.106.004.118.022.014.045-.094.024-.116a.021.021 0 0 0-.028-.002zM11.691 10.41c-.008.006-.014.043-.014.081a.158.158 0 0 1-.041.108c-.022.022-.041.057-.041.077s-.012.053-.028.075a.402.402 0 0 0-.041.096c-.006.033-.022.057-.033.057-.012 0-.02.016-.02.037 0 .022-.018.055-.041.075s-.041.049-.041.065c0 .014-.014.026-.03.026s-.03.01-.03.022a.4.4 0 0 1-.096.116l-.094.094.033.059c.045.077.047.393.004.45-.016.022-.03.053-.03.069s-.012.057-.028.092a7.07 7.07 0 0 1-.153.319c-.065.12-.067.128-.039.144.014.01.039.018.053.018.012 0 .024.014.024.03s.01.03.022.03c.057 0 .098.092.1.224.002.238.041.287.112.136.022-.047.051-.094.065-.102s.026-.026.026-.037c0-.026.144-.159.175-.161.01 0 .041-.018.065-.041.043-.041.043-.053.03-.323-.012-.269-.01-.285.039-.391a.95.95 0 0 1 .108-.177c.053-.063.065-.067.142-.055.085.012.085.01.1-.055a1.426 1.426 0 0 0 0-.267c-.014-.195-.014-.197-.067-.197-.094 0-.11-.022-.187-.254a1.232 1.232 0 0 1-.02-.26c0-.108-.004-.197-.006-.197-.004 0-.012.006-.018.014zM28.973 12.776c0 .028.004.039.01.024a.11.11 0 0 0 0-.051c-.006-.012-.01-.002-.01.026zM29.158 12.831c-.014.037-.035.067-.045.067-.012 0-.022.02-.022.043 0 .049-.094.146-.124.13-.01-.008-.018-.053-.018-.102 0-.132-.037-.13-.051.004a.753.753 0 0 1-.041.189c-.014.039-.033.122-.039.183s-.02.114-.033.118c-.01.004-.02.055-.018.112 0 .077.006.096.018.065a.324.324 0 0 0 .018-.108c.002-.043.012-.065.033-.065.016 0 .03-.014.03-.03s.018-.049.041-.071c.022-.022.041-.049.041-.061 0-.01.012-.026.026-.035a.434.434 0 0 0 .071-.114c.026-.053.057-.096.067-.096s.018-.02.018-.045c0-.024.014-.059.033-.079s.028-.061.024-.104l-.006-.067-.024.065zM12.078 12.869c-.008.008-.014.047-.014.087 0 .055-.014.087-.059.13-.033.03-.067.055-.079.055-.035 0-.108.077-.149.155-.045.092-.049.205-.008.26.016.022.03.057.03.077s.014.037.03.037.03.014.03.03.014.03.03.03.051.018.077.041c.024.024.061.059.083.077.035.033.039.033.067-.012.039-.057.096-.057.136-.002.043.061.073.03.073-.073 0-.059.01-.092.03-.1.016-.006.03-.028.03-.051s.01-.065.024-.094c.043-.096-.057-.374-.136-.376-.055-.002-.136-.102-.159-.191-.014-.053-.033-.089-.041-.081zM13.132 13.532c-.069.022-.153.138-.153.212 0 .03-.012.049-.03.049-.016 0-.03.012-.03.028s-.024.035-.057.041a.435.435 0 0 0-.132.083c-.069.063-.075.077-.075.181 0 .087.01.124.041.155.022.022.051.041.063.041s.035.014.051.03c.018.016.067.03.11.03.055 0 .092.014.12.043.033.035.055.041.11.03a.295.295 0 0 1 .157.02c.075.03.098.03.161.008a.382.382 0 0 0 .124-.077c.043-.043.051-.067.051-.177 0-.124-.002-.128-.096-.222-.1-.098-.114-.122-.077-.144.049-.03.004-.214-.071-.287a.53.53 0 0 0-.193-.067 2.606 2.606 0 0 1-.071.022zM28.704 13.805c0 .028.008.047.018.041s.014-.03.008-.053c-.014-.057-.026-.051-.026.012zM29.154 13.868c-.053.063-.063.094-.063.181 0 .069.01.114.03.13.016.014.03.037.03.051 0 .016.01.03.022.035.035.012-.002.122-.045.132-.053.014-.049.047.008.047.104 0 .13.02.142.108.006.047.022.087.033.092.012.004.022.02.022.037s.014.028.03.028a.05.05 0 0 1 .043.03c.02.053.14.061.21.012a.249.249 0 0 1 .077-.043c.022-.002.094-.159.108-.242.008-.057.026-.077.096-.112.047-.024.085-.049.087-.059 0-.008.018-.033.041-.055.028-.028.041-.067.041-.13 0-.075-.012-.104-.069-.167-.073-.079-.112-.087-.352-.067-.067.006-.096-.002-.134-.039s-.071-.045-.171-.045c-.12 0-.128.004-.187.075zM12.35 14.029c0 .022.006.028.012.012.006-.014.004-.033-.002-.039-.006-.008-.012.004-.01.026zM28.645 14.029c0 .022.006.028.012.012.006-.014.004-.033-.002-.039-.006-.008-.012.004-.01.026zM12.025 14.171c0 .022.006.028.012.012.006-.014.004-.033-.002-.039-.006-.008-.012.004-.01.026zM12.409 14.204c0 .033.01.057.02.057.026 0 .026-.041 0-.081-.016-.024-.02-.018-.02.024zM12.46 14.34c-.016.026.01.124.033.124.024 0 .024-.116 0-.132-.01-.006-.024-.002-.033.008zM28.519 14.373c-.026.045-.039.132-.018.132.012 0 .026-.012.033-.028.014-.039.002-.13-.014-.104zM14.159 14.525c0 .171-.1.342-.23.393-.043.016-.047.112-.004.128.016.008.03.02.03.033 0 .022.069.185.112.264.016.028.03.075.03.102 0 .024.014.073.03.106.043.081.043.395 0 .411-.018.008-.03.039-.03.079 0 .057.014.085.102.189.037.043.014.092-.051.11-.077.02-.112.075-.126.205-.016.161-.057.238-.126.238-.051 0-.057.006-.047.051.004.028.018.051.028.051s.016.02.012.045c-.004.039-.016.045-.061.041-.033-.004-.057.002-.057.014s.016.022.037.022c.018 0 .047.018.061.041s.035.041.045.041c.028 0 .102.077.102.108 0 .014.018.061.041.106s.041.096.041.116c0 .02.014.043.03.049.016.008.03.024.03.039s.047.073.102.132c.142.151.14.199-.018.258-.065.026-.132.047-.151.047s-.039.01-.045.022a.221.221 0 0 1-.057.041c-.122.055-.36.258-.36.307 0 .01-.014.016-.03.016s-.03.014-.03.03a.05.05 0 0 1-.03.043c-.016.008-.03.024-.03.041s-.008.028-.016.028c-.01 0-.03.024-.047.055a.325.325 0 0 1-.043.069c-.026.018-.041.189-.018.22.045.067.804.077.891.01a.19.19 0 0 1 .094-.028c.03 0 .055-.01.055-.022 0-.01.028-.03.061-.041.035-.012.061-.03.061-.041s.01-.018.022-.018c.014 0 .053-.033.092-.071.096-.102.199-.108.222-.012.006.033.03.094.053.136.02.043.039.09.039.104s.006.026.016.026c.008 0 .026.026.041.057.012.033.043.077.065.102s.041.049.041.055c0 .006.059.071.132.142.114.114.132.142.132.205 0 .039-.014.085-.03.102a.125.125 0 0 0-.03.069c0 .039.114.122.167.122.018 0 .043.014.057.03s.037.03.053.03c.043 0 .187.148.201.21.008.03.022.055.033.055s.018.028.018.061c0 .035.012.094.028.13a.94.94 0 0 1 .043.199c.016.153.039.189.128.207.035.008.065.022.065.033s.026.022.059.03c.063.012.205.134.205.171 0 .012.014.022.03.022s.03.014.03.03.018.03.041.03c.047 0 .049-.012.018-.171-.028-.157-.008-.26.065-.34.033-.035.059-.075.059-.087a.414.414 0 0 0-.092-.122 1 1 0 0 1-.092-.108.21.21 0 0 0-.037-.049.409.409 0 0 1-.067-.096c-.014-.03-.043-.071-.063-.092s-.037-.055-.037-.075c0-.022-.014-.041-.03-.041-.02 0-.03-.02-.03-.059 0-.033-.012-.063-.024-.069-.018-.004-.026-.055-.026-.159 0-.167-.014-.201-.096-.236-.033-.014-.057-.035-.057-.047 0-.01-.014-.02-.03-.02s-.03-.012-.03-.028-.012-.033-.024-.037c-.016-.006-.028-.067-.033-.175-.008-.183.008-.228.089-.228.026 0 .049-.01.049-.02 0-.012-.014-.02-.03-.02s-.03-.014-.03-.033c0-.018-.018-.037-.041-.043s-.041-.024-.041-.039a.027.027 0 0 0-.028-.028c-.037 0-.055-.102-.033-.181.018-.067.016-.071-.065-.092-.033-.006-.057-.022-.057-.033 0-.012-.016-.02-.037-.02-.051 0-.126-.083-.126-.138 0-.03.018-.053.057-.065a.773.773 0 0 0 .089-.041.175.175 0 0 1 .075-.02c.055 0 .285-.134.352-.205.03-.033.065-.059.075-.059.012 0 .022-.01.022-.022s.033-.051.071-.087c.039-.039.071-.081.071-.1 0-.016.014-.035.03-.043.016-.006.03-.024.03-.041 0-.014.014-.033.03-.041.016-.006.03-.028.03-.051s.012-.053.028-.067c.096-.096.033-.187-.142-.21-.287-.035-.802-.002-.802.053 0 .01-.026.018-.061.018-.033 0-.061.01-.061.02 0 .012-.022.03-.051.041-.057.022-.083.041-.181.136-.081.081-.175.094-.175.02a.161.161 0 0 0-.03-.083c-.016-.022-.03-.061-.03-.087s-.008-.047-.018-.047c-.01 0-.03-.033-.045-.071s-.035-.071-.043-.071c-.008 0-.016-.014-.016-.03s-.018-.049-.041-.071a.182.182 0 0 1-.041-.053c0-.008-.016-.026-.035-.041-.049-.035-.047-.279.002-.332.018-.02.033-.047.033-.061s.018-.049.041-.077a.197.197 0 0 0 .041-.079c0-.016.01-.028.02-.028.012 0 .02-.012.02-.026s.018-.041.041-.061c.043-.037.057-.116.02-.116-.012 0-.049-.028-.081-.061-.033-.035-.069-.061-.081-.061-.01 0-.02-.01-.02-.02 0-.012-.026-.049-.061-.081-.033-.033-.061-.081-.061-.106a.162.162 0 0 0-.03-.085c-.041-.055-.041-.389 0-.46a.367.367 0 0 0 .03-.138c0-.079-.006-.089-.061-.108-.033-.012-.061-.03-.061-.041s-.018-.018-.041-.018c-.022 0-.041-.012-.041-.028s-.014-.033-.03-.041a.048.048 0 0 1-.03-.043c0-.016-.012-.03-.028-.03s-.035-.028-.043-.061c-.008-.035-.02-.061-.03-.061s-.022-.028-.03-.061c-.008-.035-.026-.061-.043-.061-.02 0-.028.03-.028.122zM12.531 14.564c0 .047.01.083.02.083.012 0 .02-.03.02-.069s-.008-.077-.02-.083c-.012-.008-.02.02-.02.069zM28.44 14.529a.402.402 0 0 1-.012.071c-.01.035-.004.047.02.047.037 0 .047-.11.012-.132-.01-.006-.02 0-.02.014zM11.419 14.572a.388.388 0 0 0-.106.14l-.041.096.041.092c.022.051.049.094.059.094.028 0 .024.118-.004.126-.014.006-.028.065-.033.155-.008.12-.002.149.024.159.018.006.033.024.033.041s.018.028.039.028c.022 0 .047.008.053.02.039.063.315-.041.315-.118 0-.039.087-.083.191-.096.089-.012.128-.028.185-.081.065-.063.071-.079.071-.183 0-.081-.008-.116-.03-.124-.016-.008-.03-.022-.03-.033 0-.033-.087-.096-.136-.098-.081 0-.108-.024-.12-.104-.012-.077-.035-.1-.059-.059-.024.039-.11.02-.177-.041-.081-.075-.179-.079-.275-.014zM13.062 14.712c-.002.075.008.142.018.149.024.016.024-.185 0-.244-.012-.028-.018 0-.018.096zM12.592 14.716c0 .051.008.073.03.073.02 0 .03.02.03.063 0 .041.008.059.026.053.026-.008.022-.098-.006-.116-.01-.006-.024-.037-.03-.067-.022-.083-.051-.087-.051-.006zM28.755 14.688c-.006.01.002.02.018.02.018 0 .033-.01.033-.02 0-.012-.008-.02-.018-.02a.041.041 0 0 0-.033.02zM28.375 14.72c-.01.008-.016.035-.016.057 0 .045-.138.134-.207.134-.051 0-.171.122-.207.214-.041.096-.041.132-.002.205.018.035.03.114.03.185s.008.128.02.128.02-.014.02-.03c0-.035.03-.039.214-.033a.347.347 0 0 0 .173-.028.576.576 0 0 1 .087-.043c.051-.018.136-.201.136-.289a.224.224 0 0 0-.03-.114c-.041-.055-.041-.195 0-.195.016 0 .03-.012.03-.028s.014-.033.03-.041c.016-.006.03-.02.03-.033 0-.01-.014-.02-.03-.02s-.03.014-.03.03-.012.03-.024.03a.29.29 0 0 0-.085.03c-.073.039-.098.02-.112-.094-.006-.045-.018-.075-.026-.067zM28.694 14.747c-.012.022.018.047.039.028.018-.018.014-.047-.006-.047-.012 0-.024.008-.033.018zM12.735 15.013c0 .01.01.02.022.02.01 0 .014-.01.008-.02-.006-.012-.016-.02-.022-.02-.004 0-.008.008-.008.02zM13.121 15.17c0 .183-.012.205-.104.214l-.081.006-.008.171c-.008.146-.004.185.033.26.022.049.051.087.061.087s.018.014.018.03.014.03.033.03a.11.11 0 0 1 .061.03.126.126 0 0 0 .069.031c.041 0 .183.138.183.177 0 .014.012.026.028.026.014 0 .033.02.041.045.008.035.016.041.035.022s.012-.047-.022-.116c-.047-.1-.043-.216.012-.216.016 0 .028-.014.028-.03s.008-.03.018-.03c.026 0 .104-.167.104-.226a.19.19 0 0 0-.03-.092.155.155 0 0 1-.03-.079c0-.053-.085-.132-.138-.132-.024 0-.047-.008-.053-.018a.34.34 0 0 0-.102-.043c-.098-.026-.114-.053-.114-.189 0-.041-.008-.075-.02-.075-.01 0-.02.053-.02.116zM12.796 15.164c0 .028.01.057.02.063.012.008.02-.014.02-.049s-.008-.063-.02-.063c-.01 0-.02.022-.02.049zM27.59 15.166c0 .033.004.045.01.024a.156.156 0 0 0 0-.061c-.006-.012-.01.002-.01.037zM12.857 15.278c0 .01.01.02.02.02a.02.02 0 0 0 .02-.02c0-.012-.008-.02-.02-.02a.02.02 0 0 0-.02.02z"/><path d="M29.363 15.343a1.542 1.542 0 0 0-.114.102c-.03.033-.063.057-.071.057s-.037.02-.059.047a.506.506 0 0 1-.102.075.244.244 0 0 0-.075.055.057.057 0 0 1-.045.026.091.091 0 0 0-.055.028.251.251 0 0 1-.094.041c-.037.006-.094.018-.126.024a.23.23 0 0 1-.122-.012c-.053-.022-.067-.02-.102.01-.022.02-.041.049-.041.065 0 .014-.012.033-.028.039s-.035.033-.041.059c-.016.061-.114.092-.297.092-.169 0-.193-.016-.175-.108.008-.043.004-.077-.008-.085s-.026.014-.033.049c-.008.035-.024.063-.039.063s-.03.016-.035.037c-.014.049-.132.138-.205.157-.047.012-.059.008-.069-.028-.012-.045-.047-.059-.047-.02 0 .012-.018.045-.041.073s-.041.067-.041.085c0 .045-.112.165-.153.165-.016 0-.039-.016-.045-.037-.008-.018-.02-.041-.03-.047s-.024-.047-.03-.092c-.008-.043-.024-.092-.041-.106a.11.11 0 0 1-.026-.067c0-.022-.014-.045-.03-.051-.016-.008-.03-.02-.03-.03 0-.057-.187-.258-.37-.401a.41.41 0 0 1-.098-.089c0-.008-.018-.016-.041-.016-.022 0-.041-.008-.041-.02 0-.018-.126-.061-.189-.061-.02 0-.045.022-.055.055a.7.7 0 0 1-.041.092c-.012.02-.02.185-.02.374 0 .273.006.342.03.366.016.018.03.049.03.071 0 .045.102.242.126.242.008 0 .016.008.016.02 0 .01.043.061.094.112.116.118.116.173-.002.205-.199.053-.352.134-.57.305-.049.037-.203.022-.256-.024-.016-.016-.051-.028-.075-.028s-.045-.008-.045-.018c0-.01-.043-.039-.096-.065a.609.609 0 0 1-.132-.083c-.055-.055-.155-.049-.179.014-.022.059-.199.234-.236.234-.012 0-.03.014-.037.033-.01.028-.059.033-.399.024-.366-.006-.387-.004-.415.035a.15.15 0 0 0-.033.059c0 .018-.12.136-.205.199-.026.02-.063.037-.083.037s-.037.008-.037.02c0 .01-.024.033-.055.049-.071.037-.049.045.157.061.083.006.155.02.159.033.004.01.018.02.033.02.03 0 .114.085.114.116 0 .01.018.037.043.059.041.037.045.037.069.002.012-.018.039-.035.055-.035s.047-.014.069-.03a.18.18 0 0 1 .096-.03c.03 0 .055-.008.055-.02 0-.01.039-.028.087-.041.047-.012.104-.033.126-.045s.124-.026.226-.033c.146-.008.201-.002.252.024.085.041.163.043.163.002 0-.016.014-.03.03-.03s.03-.012.03-.028c0-.039.104-.063.126-.028a.085.085 0 0 1 .008.059c-.01.045.004.061.083.104a.389.389 0 0 0 .177.037c.155 0 .246.083.173.157-.014.014-.006.018.03.012.03-.006.059-.018.065-.028.016-.026.106-.022.114.006.006.014-.002.049-.018.077-.03.061-.035.102-.006.102.012 0 .02-.012.02-.026s.018-.041.041-.061c.022-.018.041-.053.041-.073 0-.022.01-.047.022-.053a.208.208 0 0 0 .039-.063c.014-.037.035-.049.081-.049.033 0 .061-.008.061-.02 0-.01.039-.028.087-.043.079-.02.281-.146.295-.185.004-.008.02-.016.037-.016s.028-.014.028-.03c0-.018.024-.041.055-.053.049-.018.063-.014.102.033.026.028.047.077.047.108s.014.073.03.094c.016.022.03.057.03.077s.008.037.016.037c.01 0 .03.024.047.055a.674.674 0 0 0 .049.083c.039.049.234.248.244.248.006 0 .035.024.065.057.033.03.081.069.114.083.03.016.055.037.055.047 0 .008.014.016.033.016a.11.11 0 0 1 .061.03c.018.016.061.03.1.03.057 0 .069-.008.077-.057.006-.03.02-.092.033-.136.033-.126.028-.559-.008-.661-.016-.047-.03-.108-.03-.134s-.008-.049-.018-.049c-.01 0-.024-.028-.033-.063s-.026-.067-.043-.073c-.016-.006-.028-.018-.028-.028 0-.012-.026-.047-.061-.079-.033-.033-.061-.069-.061-.081 0-.01-.018-.02-.041-.02-.03 0-.041-.014-.041-.049 0-.041.022-.061.11-.102a.681.681 0 0 1 .14-.053.92.92 0 0 0 .228-.108 2.2 2.2 0 0 0 .201-.183c.157-.151.167-.157.26-.157.053 0 .102.008.108.02.02.035.112.022.124-.016.035-.102.161-.33.185-.33a.026.026 0 0 0 .026-.026c0-.024.033-.047.163-.106a1.39 1.39 0 0 0 .106-.051.342.342 0 0 1 .13-.02.893.893 0 0 0 .21-.035c.112-.035.163-.073.165-.124 0-.051.092-.228.118-.228.012 0 .024-.01.024-.02 0-.012.033-.051.071-.087s.065-.073.057-.081a.796.796 0 0 0-.199-.014h-.187l-.065-.071c-.075-.083-.098-.087-.177-.026z"/><path d="M27.518 15.53c-.014.096-.008.134.018.11a.313.313 0 0 0 .004-.11l-.006-.1-.016.1zM27.925 15.658c-.008.006-.014.022-.014.035s.01.01.024-.004c.012-.012.018-.028.014-.035-.006-.006-.018-.004-.024.004zM27.455 15.715c-.018.051-.014.173.006.173.026 0 .051-.163.026-.187-.012-.012-.024-.008-.033.014zM27.85 15.799c0 .016.01.024.02.018a.038.038 0 0 0 .02-.033c0-.01-.008-.018-.02-.018-.01 0-.02.014-.02.033zM11.616 15.908c-.028.033-.061.061-.075.061-.012 0-.039.014-.057.033-.039.041-.248.03-.275-.012-.01-.016-.035-.02-.073-.012-.051.014-.053.018-.022.035.018.012.035.035.035.049 0 .016.012.03.026.03.016 0 .045.018.065.041s.049.041.065.041c.014 0 .026.014.026.03s.01.03.02.03c.012 0 .033.024.047.055.012.033.035.069.049.083s.026.047.026.069c0 .085.075.116.293.118.25 0 .415.049.535.159.085.079.149.169.149.212 0 .014.024.051.051.083.049.055.049.055.126.022.299-.13.592-.185.828-.157.079.01.098.006.089-.016-.004-.016-.03-.03-.055-.035s-.063-.024-.085-.047c-.02-.02-.053-.039-.069-.039s-.03-.01-.03-.02c0-.012-.012-.02-.026-.02s-.047-.018-.071-.041a.18.18 0 0 0-.059-.041c-.024 0-.23-.195-.23-.216 0-.01-.016-.035-.035-.051a.565.565 0 0 1-.065-.073c-.024-.037-.049-.041-.25-.041-.185.002-.228-.004-.242-.03-.01-.018-.047-.039-.079-.047-.035-.008-.061-.02-.061-.03s-.026-.022-.059-.03c-.033-.006-.065-.026-.071-.043s-.03-.028-.053-.028c-.022 0-.047-.014-.053-.03-.008-.016-.026-.03-.041-.03-.016 0-.035-.014-.041-.03-.008-.016-.026-.03-.041-.03-.016 0-.035-.014-.041-.03-.02-.053-.116-.037-.171.03zM27.382 16c0 .016.01.03.02.03.012 0 .02-.014.02-.03s-.008-.03-.02-.03c-.01 0-.02.014-.02.03zM13.518 16.374c-.006.01-.002.024.01.033.01.006.02-.002.02-.018 0-.037-.012-.043-.03-.014zM18.525 17.768c-.026.028-.053.053-.061.053s-.043.028-.079.061a.387.387 0 0 1-.1.073c-.02.006-.037.02-.037.03s-.014.018-.03.018a.05.05 0 0 0-.043.03c-.008.016-.024.03-.041.03a.42.42 0 0 0-.114.057 3.796 3.796 0 0 1-.474.238c-.104.045-.24.087-.319.1-.041.008-.102.026-.132.043s-.11.03-.173.03c-.12 0-.171.026-.092.049.024.006.079.012.12.012s.081.008.087.02c.006.01.051.028.098.041s.104.03.126.041c.022.01.069.024.106.03a.18.18 0 0 1 .09.043.083.083 0 0 0 .059.028c.018 0 .085.026.148.061a.598.598 0 0 0 .146.061c.016 0 .03.008.03.02 0 .01.043.041.096.065s.112.059.132.077l.077.065c.022.02.045.037.049.037.018 0 .175.161.175.181 0 .012.014.022.03.022s.03.012.03.028c0 .043.079.061.134.03.026-.014.049-.033.049-.043 0-.008.018-.016.039-.016s.043-.014.049-.028c.006-.016.047-.037.09-.043a.511.511 0 0 0 .12-.035c.083-.041.659.022.716.077.014.016.063.028.108.028.043 0 .079.008.079.02 0 .01.037.026.083.033.045.008.094.024.108.039s.063.033.11.041.085.02.085.03c0 .008.033.022.071.028.039.008.071.022.071.033 0 .008.026.022.061.03.033.006.13.049.216.094.146.073.159.075.183.043.03-.041.041-.067.057-.171.008-.041.026-.079.043-.085s.03-.02.03-.033c0-.022.073-.102.096-.102a.114.114 0 0 0 .045-.028c.071-.065.218-.096.517-.108.293-.012.378-.03.264-.059a.191.191 0 0 1-.083-.043.105.105 0 0 0-.063-.026c-.045 0-.411-.195-.441-.236-.012-.016-.033-.028-.047-.028-.012 0-.022-.014-.022-.03s-.01-.03-.022-.03c-.057 0-.24-.236-.242-.309 0-.014-.024-.053-.051-.083-.047-.053-.057-.055-.118-.037-.035.012-.116.026-.177.035s-.116.02-.122.028a2.331 2.331 0 0 1-.336.037c-.323.02-.738.002-.763-.035-.006-.01-.039-.024-.075-.03-.035-.008-.069-.028-.075-.045s-.02-.028-.035-.028c-.047 0-.283-.203-.283-.246 0-.01-.014-.018-.03-.018s-.03-.012-.03-.026c0-.014-.018-.041-.041-.061-.022-.018-.041-.047-.041-.063s-.014-.033-.03-.041c-.016-.006-.03-.026-.03-.047-.002-.098-.102-.132-.171-.059zM25.744 18.167c-.006.01.002.02.018.02.018 0 .033-.01.033-.02 0-.012-.008-.02-.018-.02a.041.041 0 0 0-.033.02zM23.232 18.309c0 .01-.016.02-.037.02s-.069.033-.108.073c-.067.069-.071.071-.191.059-.132-.012-.203.01-.242.081a.204.204 0 0 1-.047.057c-.039.024-.035.236.004.25.016.008.03.022.03.037 0 .024.118.085.21.106.041.008.055.024.055.059 0 .024.012.057.028.069a.16.16 0 0 1 .041.069c.012.051.136.116.22.116.138 0 .24-.116.24-.275.002-.087.01-.108.061-.153.067-.055.077-.081.03-.081-.039 0-.039-.02 0-.094.041-.079.041-.271 0-.285-.016-.008-.03-.024-.03-.041s-.033-.043-.073-.059c-.083-.035-.191-.041-.191-.01zM24.615 18.348c0 .01-.024.028-.055.041a.3.3 0 0 0-.148.226.156.156 0 0 1-.03.09c-.016.016-.03.039-.03.051 0 .033.067.104.096.104.041 0 .033.116-.008.14-.053.028-.014.053.041.026.024-.012.132-.024.24-.028.153-.004.201-.014.23-.043.02-.018.045-.035.055-.035s.047-.057.079-.128c.057-.124.167-.244.244-.269.075-.024.047-.063-.041-.055-.045.004-.081.016-.081.024s-.022.02-.049.024c-.035.006-.067-.008-.11-.049a.418.418 0 0 0-.075-.057.208.208 0 0 1-.065-.041c-.039-.03-.083-.041-.171-.041-.067 0-.12.008-.12.018zM25.948 18.396c-.008.02-.01.043-.002.049.02.02.037-.008.026-.049-.008-.035-.008-.035-.024 0zM25.388 18.431c0 .01.014.02.03.02s.03-.01.03-.02c0-.012-.014-.02-.03-.02s-.03.008-.03.02zM16.478 18.492c0 .01.043.02.094.02.055 0 .087-.008.079-.02-.006-.012-.049-.02-.094-.02-.043 0-.079.008-.079.02zM25.856 18.533c-.014.033-.033.061-.043.061s-.018.018-.018.041c0 .022-.008.041-.016.041-.01 0-.03.024-.047.055-.059.118-.33.393-.382.393-.012 0-.022.012-.022.028s-.012.033-.024.039c-.02.006-.02.018 0 .053.033.057.033.267-.004.317a.402.402 0 0 0-.041.096c-.006.033-.022.057-.033.057-.012 0-.02.018-.02.039a.123.123 0 0 1-.024.067.574.574 0 0 0-.1.163c-.012.028-.035.059-.051.065s-.028.024-.028.043c0 .016-.01.03-.022.03-.01 0-.035.033-.051.071-.028.071-.028.073.043.134.09.079.12.187.102.368-.01.118-.008.138.018.138.018 0 .033-.01.033-.022 0-.043.275-.297.336-.311.114-.026.134-.057.153-.24.028-.262.059-.439.085-.49a.67.67 0 0 1 .336-.289c.079-.037.087-.047.087-.116a.19.19 0 0 0-.03-.106c-.016-.016-.03-.051-.03-.077s-.014-.067-.03-.09c-.035-.053-.071-.228-.087-.443-.016-.175-.045-.214-.085-.114zM16.071 18.757c0 .01.014.02.033.02.016 0 .024-.01.018-.02a.038.038 0 0 0-.033-.02c-.01 0-.018.008-.018.02zM16.132 18.816c0 .01.028.024.061.033.035.008.061.026.061.043s.018.028.041.028c.026 0 .041.014.041.041 0 .022.01.041.022.041.016 0 .02.033.012.104-.014.118.022.283.061.283.014 0 .026.012.026.024.002.096.293.155.431.09.063-.03.075-.03.13-.002a.44.44 0 0 1 .177.179c.006.018.022.035.035.035.01 0 .02.014.02.03s.014.03.03.03.03.01.03.022c0 .022.094.12.114.12.004 0 .008-.014.008-.03s-.014-.03-.03-.03-.03-.018-.03-.041-.014-.041-.03-.041-.03-.014-.03-.03-.018-.047-.041-.065c-.022-.02-.041-.043-.041-.051 0-.022-.077-.098-.102-.098-.01 0-.02-.014-.02-.03 0-.014-.016-.037-.035-.049-.053-.028-.004-.124.063-.124.026 0 .053.008.057.018.01.028.104.035.112.006.006-.014-.008-.024-.03-.024a.125.125 0 0 1-.073-.03c-.016-.016-.037-.03-.045-.03-.037 0-.11-.11-.11-.165 0-.033-.008-.059-.02-.059-.01 0-.024-.022-.033-.051-.022-.087-.124-.132-.297-.132-.112 0-.161.008-.179.03-.014.016-.043.03-.065.03s-.053-.014-.069-.03c-.018-.016-.049-.03-.069-.03s-.041-.014-.049-.03c-.012-.033-.134-.043-.134-.012zM23.964 18.818c-.053.012-.03.016.092.016.108 0 .148-.004.122-.016-.049-.02-.116-.02-.214 0zM24.164 19.157c.014.006.033.004.039-.002.008-.006-.004-.012-.026-.01-.022 0-.028.006-.012.012zM24.005 19.224c0 .01.012.02.028.02s.037-.01.043-.02c.006-.012-.006-.02-.028-.02-.024 0-.043.008-.043.02zM23.863 19.285c-.024.016-.022.02.014.02.024 0 .051-.01.057-.02.016-.026-.03-.026-.071 0zM17.393 19.407c0 .01.024.02.057.02.043 0 .049-.004.024-.02-.041-.026-.081-.026-.081 0zM17.577 19.489c0 .01.018.02.039.02.022 0 .047-.01.053-.02.008-.012-.01-.02-.039-.02s-.053.008-.053.02zM22.408 19.526c-.081.03-.153.071-.153.09 0 .01-.018.037-.041.061s-.041.057-.041.071c0 .014-.01.026-.024.026-.012 0-.039.014-.059.033a.348.348 0 0 1-.148.043c-.153.016-.144.047.014.047.163 0 .218.016.218.061 0 .065.155.201.254.224.096.022.275-.006.275-.043 0-.01.014-.018.03-.018s.03-.012.03-.026c0-.014.016-.041.037-.059a.836.836 0 0 0 .071-.085c.026-.041.055-.053.106-.053.039 0 .071-.01.071-.02 0-.012-.028-.02-.061-.02-.071 0-.104-.057-.087-.146.008-.043 0-.053-.049-.065a.443.443 0 0 1-.122-.065.46.46 0 0 0-.321-.053zM17.719 19.55c0 .01.041.02.092.02s.092-.01.092-.02c0-.012-.041-.02-.092-.02s-.092.008-.092.02zM23.151 19.55c0 .01.033.02.071.02s.071-.01.071-.02c0-.012-.033-.02-.071-.02s-.071.008-.071.02zM17.953 19.611c.006.01.043.02.077.02.049 0 .057-.006.035-.02-.041-.026-.128-.026-.112 0zM18.177 19.672c-.008.012.014.02.055.018.055 0 .061-.004.026-.018-.055-.024-.067-.024-.081 0zM24.05 19.715c-.079.016-.167.106-.167.169 0 .026-.014.059-.03.073s-.03.039-.03.053c0 .016-.02.028-.051.028-.055 0-.061.008-.081.126-.008.049-.022.077-.041.077-.024 0-.03.033-.03.144 0 .13.006.151.053.195.045.041.073.049.185.049.092 0 .142-.01.167-.03.047-.043.183-.043.197-.002.014.037.218.043.258.01.134-.114.136-.118.136-.232 0-.09-.01-.122-.049-.163-.026-.03-.053-.053-.061-.053a.191.191 0 0 1-.053-.035c-.028-.024-.041-.061-.041-.118a.254.254 0 0 0-.03-.124.149.149 0 0 1-.03-.075c0-.018-.014-.035-.03-.035a.059.059 0 0 1-.045-.028c-.02-.033-.136-.049-.226-.03zM18.488 19.757c.035.012.065.035.065.047 0 .033.047.051.118.051.083 0 .146-.022.146-.051s-.092-.049-.275-.061c-.11-.008-.116-.006-.055.014zM20.412 19.951a.206.206 0 0 0-.085.083c-.053.124-.118.197-.191.216-.033.006-.057.022-.057.033 0 .012-.039.02-.085.02a.699.699 0 0 0-.132.012c-.053.014-.063.049-.016.049.016 0 .03.012.03.028s.028.035.061.043c.035.008.061.02.061.03s.043.039.094.065c.053.024.1.057.104.071.006.014.022.026.037.026s.03.018.037.041c.006.022.024.041.043.041s.033.014.033.033c0 .028.016.033.104.022a.34.34 0 0 0 .132-.037c.045-.037.393.024.421.075.008.016.037.028.063.028s.059.014.073.03c.014.016.043.03.063.03.033 0 .177.073.201.102.02.026.085.041.134.028.035-.008.049-.026.049-.061 0-.028.014-.055.037-.063a.16.16 0 0 0 .057-.043c.014-.02.079-.033.218-.041a.69.69 0 0 0 .197-.022c-.002-.035-.059-.079-.118-.092-.037-.008-.065-.028-.065-.045s-.012-.028-.026-.028c-.047 0-.169-.128-.207-.218-.02-.047-.051-.092-.067-.098s-.112 0-.212.012c-.207.024-.521-.008-.539-.057-.006-.014-.026-.026-.047-.026-.059 0-.146-.124-.134-.187.008-.045 0-.063-.047-.098-.069-.049-.13-.051-.218-.006zM23.32 19.951a.211.211 0 0 0 .071 0c.018-.006.002-.01-.037-.01s-.055.004-.035.01zM17.477 20.01c0 .022.006.028.012.012.006-.014.004-.033-.002-.039-.006-.008-.012.004-.01.026zM17.817 20.038a.383.383 0 0 0-.102.049c-.063.045-.132.041-.144-.008-.016-.061-.055-.049-.055.018 0 .047-.01.061-.055.073-.098.022-.207.079-.21.106 0 .014-.014.026-.03.026-.047 0-.043.269.004.317.049.047.155.09.23.09.033 0 .061.008.061.02 0 .01.014.02.03.02s.03.018.03.041c0 .022.018.059.041.081s.041.047.041.057c0 .026.205.09.23.069a.36.36 0 0 1 .077-.033c.108-.024.189-.273.11-.338-.033-.026-.043-.114-.014-.126a.339.339 0 0 0 .061-.083c.045-.077.063-.258.028-.258-.01 0-.028-.022-.041-.049-.033-.075-.173-.11-.293-.073zM15.758 22.26c-.028.041-.033.189-.033 1.2v1.155l.055.022c.071.026.775.026.846 0 .061-.024.073-.092.03-.151-.022-.026-.079-.035-.356-.039a2.336 2.336 0 0 1-.346-.022c-.02-.022-.035-.639-.016-.757.014-.106.028-.11.356-.13l.234-.012.006-.055a.201.201 0 0 0-.016-.098c-.02-.037-.041-.041-.271-.041-.136 0-.262-.01-.279-.02-.024-.016-.03-.085-.03-.415 0-.289.006-.403.024-.421s.132-.03.352-.037c.376-.014.395-.024.354-.181-.012-.045-.014-.045-.448-.045-.425 0-.433 0-.464.045zM17.017 22.264c-.037.053-.022.106.041.161.037.033.071.035.326.024.352-.016.397-.004.397.11 0 .043-.012.09-.028.102a.18.18 0 0 0-.043.085c-.008.033-.022.059-.033.059s-.018.012-.018.026a.363.363 0 0 1-.041.102c-.022.041-.041.098-.041.126s-.014.057-.03.063c-.016.008-.03.035-.03.059 0 .026-.012.061-.028.075-.014.016-.049.09-.073.165s-.059.146-.073.159c-.016.012-.028.045-.028.069s-.014.057-.03.071a.098.098 0 0 0-.03.063.125.125 0 0 1-.03.067c-.016.016-.03.047-.03.067s-.018.073-.041.118a.432.432 0 0 0-.041.104c0 .012-.014.035-.03.049s-.03.047-.03.071c0 .026-.01.051-.02.055-.024.008-.069.252-.053.291.02.057.214.077.588.063.454-.018.482-.022.482-.085a.169.169 0 0 0-.035-.09c-.033-.039-.059-.041-.384-.041-.279 0-.354-.006-.372-.028-.033-.039-.01-.205.03-.238.016-.012.028-.049.028-.081s.01-.059.02-.059c.012 0 .03-.041.045-.092s.03-.092.039-.092c.006 0 .018-.028.026-.063a.207.207 0 0 1 .043-.092.137.137 0 0 0 .03-.079c0-.024.014-.051.03-.059.016-.006.03-.028.03-.051s.014-.065.03-.098a2.12 2.12 0 0 0 .071-.159c.024-.057.055-.126.071-.157.016-.028.03-.071.03-.094s.014-.051.03-.065a.098.098 0 0 0 .03-.063c0-.018.014-.049.03-.067a.134.134 0 0 0 .03-.083c0-.028.012-.057.028-.063s.039-.051.051-.1c.012-.049.03-.096.043-.102.026-.016.026-.165 0-.216-.02-.037-.049-.039-.498-.039h-.478l-.03.049zM18.695 22.245a.112.112 0 0 1-.075.03c-.026 0-.053.014-.059.03-.008.016-.02.03-.03.03s-.037.018-.059.041c-.022.022-.041.049-.041.059s-.012.022-.028.028c-.016.006-.035.039-.043.073s-.022.063-.033.063c-.01 0-.018.344-.018.844 0 .732.004.846.03.856.018.008.03.039.03.071 0 .039.01.059.03.059.016 0 .03.018.03.041s.008.041.018.041c.012 0 .049.026.083.059.051.047.09.061.195.071.159.016.326-.002.395-.045.067-.041.163-.144.163-.179 0-.014.016-.035.037-.047.033-.018.035-.083.035-.913 0-.822-.002-.895-.035-.928-.02-.02-.037-.049-.037-.065s-.014-.035-.03-.041c-.016-.008-.03-.026-.03-.041 0-.016-.016-.037-.035-.043-.02-.008-.049-.026-.063-.041s-.043-.026-.061-.026a.15.15 0 0 1-.073-.03c-.055-.041-.262-.041-.297 0zm.363.261c.024.022.045.053.045.067s.012.028.026.033c.018.008.024.195.024.85s-.006.842-.024.848c-.014.006-.026.022-.026.037s-.033.047-.071.071c-.061.039-.096.045-.22.039-.161-.008-.224-.047-.25-.151-.006-.028-.02-.051-.03-.051s-.018-.338-.018-.779c0-.84 0-.842.11-.96.051-.055.122-.071.277-.057.075.006.126.024.159.053zM19.625 22.229c-.008.006-.014.049-.014.092 0 .071.008.083.067.108a.386.386 0 0 0 .181.016c.085-.008.124-.004.165.024l.055.035v1.027c0 .667.008 1.04.02 1.066.014.026.043.039.092.039h.069l.006-1.076c.004-.592.014-1.084.022-1.092s.11-.022.224-.03l.214-.016a.766.766 0 0 0 .004-.104v-.102h-.545a5.72 5.72 0 0 0-.559.014zM21.009 22.229c-.008.006-.014.551-.014 1.208v1.194l.047.012c.059.016.724.016.806 0 .057-.012.063-.02.063-.09 0-.051-.01-.081-.033-.09-.018-.006-.157-.012-.309-.012s-.299-.006-.323-.012c-.047-.012-.047-.014-.047-.435 0-.498-.035-.45.336-.466.264-.012.275-.018.246-.136-.016-.065-.073-.075-.273-.051-.144.018-.177.016-.238-.012l-.071-.035v-.826l.053-.02c.028-.012.167-.02.309-.02s.279-.006.303-.012c.047-.012.067-.077.051-.161l-.008-.051h-.441c-.244 0-.45.006-.456.014zM22.27 22.229c-.008.006-.014.551-.014 1.208v1.196l.069.014c.128.022.124.039.124-.478 0-.529-.004-.515.148-.543.092-.018.35.03.389.073.083.09.104.163.104.382 0 .12.006.293.012.384l.014.167.079.012c.102.018.144-.012.116-.083a3.012 3.012 0 0 1-.018-.417c0-.309-.004-.364-.03-.364-.016 0-.03-.018-.03-.041s-.041-.083-.092-.134c-.051-.049-.092-.1-.092-.11s.041-.059.09-.11a.516.516 0 0 0 .102-.144c.008-.028.022-.051.033-.051.012 0 .02-.126.02-.326 0-.277-.004-.326-.03-.326-.018 0-.03-.02-.03-.053 0-.063-.148-.212-.214-.212a.155.155 0 0 1-.079-.03c-.03-.024-.11-.03-.348-.03-.171 0-.315.006-.321.014zm.702.265c.092.081.118.179.118.435 0 .262-.016.319-.12.419-.045.043-.067.047-.256.047-.193 0-.207-.002-.23-.047-.033-.059-.047-.759-.018-.824.028-.063.118-.081.34-.069.081.004.146.02.167.039zM23.68 22.256c-.014.026-.018.413-.012 1.204.008 1.286.002 1.223.134 1.184l.067-.018.002-1.17c.002-1.278.006-1.241-.114-1.241-.035 0-.063.014-.077.041zM24.235 22.239c-.008.014-.014.557-.012 1.204.004.92.012 1.184.03 1.196.014.01.055.014.087.012l.061-.006.01-.407c.01-.421.016-.448.108-.543.041-.045.157-.051.157-.008 0 .016.014.033.03.041.016.006.03.033.03.061s.01.057.022.063c.018.012.12.216.12.244 0 .008.014.026.03.043.016.018.03.049.03.071 0 .02.008.039.02.039.01 0 .024.033.033.071.006.039.018.071.026.071s.039.055.071.12c.059.124.102.155.191.13.051-.012.059-.069.018-.112a.203.203 0 0 1-.043-.083c-.006-.03-.022-.055-.033-.055-.012 0-.02-.022-.02-.049a.138.138 0 0 0-.03-.081c-.016-.016-.03-.037-.03-.047-.002-.008-.018-.053-.041-.098s-.039-.092-.041-.104c0-.014-.014-.028-.03-.037-.016-.006-.03-.035-.03-.063s-.014-.057-.03-.063c-.016-.008-.03-.03-.03-.053s-.018-.063-.041-.092a.191.191 0 0 1-.041-.09c0-.022-.008-.039-.02-.039-.01 0-.02-.01-.02-.024a.546.546 0 0 0-.043-.114l-.045-.09.045-.085c.022-.049.043-.098.043-.11s.006-.024.016-.028c.014-.006.051-.065.13-.22a.854.854 0 0 1 .071-.118.186.186 0 0 0 .039-.077c.006-.026.02-.049.028-.049.01 0 .022-.026.03-.059.006-.033.026-.065.043-.071s.028-.033.028-.061c0-.026.012-.053.026-.059.03-.01.079-.155.063-.181-.006-.008-.037-.016-.071-.016-.051 0-.067.016-.122.112-.035.061-.071.118-.081.124s-.018.026-.018.049c0 .02-.014.041-.03.049-.016.006-.03.03-.03.053s-.018.059-.041.081c-.022.022-.041.059-.041.081s-.008.041-.02.041c-.01 0-.02.012-.02.026s-.018.047-.041.071c-.022.024-.041.061-.041.081 0 .022-.014.051-.03.065s-.03.037-.03.051c0 .014-.014.037-.03.051s-.03.041-.03.059c0 .051-.094.128-.146.12l-.047-.006-.02-1.099-.075-.006c-.045-.004-.079.004-.092.02zM15.396 26.163c-.045.026-.047.092-.004.108a.641.641 0 0 0 .138.012c.075 0 .12.012.151.039.045.037.045.043.045.913 0 .482.006.889.012.907.018.047.13.043.132-.004v-.893l-.002-.858.051-.051c.047-.047.069-.053.193-.053h.142v-.059c0-.043-.012-.061-.045-.071-.079-.02-.777-.012-.814.01zM16.767 26.174a.11.11 0 0 0-.045.085c0 .03-.014.1-.03.155s-.03.132-.03.169c0 .039-.01.09-.024.114-.024.045-.055.199-.108.553-.014.1-.037.21-.049.24-.012.033-.022.092-.022.134s-.012.114-.028.159a1.26 1.26 0 0 0-.043.236c-.014.146-.012.157.024.157.067 0 .102-.063.116-.214.012-.118.022-.151.067-.189.047-.041.075-.045.26-.045.169 0 .214.006.246.037.067.061.09.122.09.234 0 .118.057.212.116.189a.191.191 0 0 1 .049-.012c.028 0 .022-.11-.012-.189-.016-.041-.03-.128-.03-.193s-.01-.128-.022-.14a.66.66 0 0 1-.041-.201c-.008-.096-.024-.185-.037-.197s-.022-.071-.022-.13a.547.547 0 0 0-.028-.177c-.014-.037-.035-.116-.043-.175s-.028-.138-.043-.175a.432.432 0 0 1-.028-.142c0-.122-.061-.289-.11-.301-.071-.02-.124-.014-.171.02zm.14.374c.01 0 .018.035.018.077 0 .045.012.106.028.138s.035.128.043.212c.008.083.02.161.03.173.008.01.02.065.028.122.006.055.016.13.024.165.008.047.002.077-.024.108-.033.037-.059.043-.203.043-.138 0-.171-.006-.201-.041-.028-.033-.03-.049-.012-.104a.646.646 0 0 0 .022-.165c0-.057.014-.13.028-.165a.76.76 0 0 0 .039-.207.949.949 0 0 1 .083-.352c.008-.014.03-.022.047-.016s.039.012.049.012zM17.695 26.155c-.035.008-.037.073-.037 1.015v1.005h.059c.035 0 .063-.012.071-.033.006-.018.012-.193.012-.393 0-.246.008-.378.026-.415.022-.053.03-.055.183-.055.092 0 .157.008.157.02 0 .01.012.02.028.02s.049.033.075.073c.041.065.047.108.053.342a2.5 2.5 0 0 0 .03.354c.02.081.026.087.085.081l.063-.006-.006-.346c-.006-.254-.014-.358-.037-.391a.173.173 0 0 1-.028-.077c0-.016-.014-.03-.03-.03s-.03-.012-.03-.028-.014-.033-.03-.041c-.043-.016-.039-.085.01-.134.022-.022.047-.041.057-.041.008 0 .03-.053.051-.118.045-.144.047-.458.004-.533a.27.27 0 0 1-.03-.098c0-.026-.012-.045-.03-.045-.016 0-.03-.014-.03-.03s-.018-.03-.039-.03c-.022 0-.043-.01-.047-.022-.012-.035-.159-.059-.362-.057a1.85 1.85 0 0 0-.228.012zm.512.173c.09.053.098.071.114.283.016.193-.004.37-.049.419-.094.104-.323.142-.413.069-.047-.037-.049-.053-.055-.34-.008-.319.012-.446.073-.462a.534.534 0 0 1 .33.03zM19.174 26.155c-.102.012-.275.116-.275.161 0 .008-.014.024-.033.039-.051.037-.075.529-.055 1.115.014.425.02.488.053.513.018.012.035.03.035.039 0 .022.075.087.142.122a.577.577 0 0 0 .372.002c.092-.037.197-.128.197-.167 0-.016.014-.043.03-.059.024-.026.03-.104.03-.421.004-.895 0-1.019-.03-1.066a.18.18 0 0 1-.03-.071c-.002-.041-.096-.138-.134-.138a.11.11 0 0 1-.067-.028c-.037-.033-.148-.051-.236-.039zm.181.159c.016.016.037.03.047.03.041.002.083.104.102.244.024.175.022 1.029-.002 1.21-.014.102-.028.132-.09.187-.057.055-.087.067-.159.067-.114 0-.216-.053-.258-.138-.03-.059-.035-.144-.035-.747 0-.753.004-.779.132-.848.079-.043.222-.047.262-.006zM19.991 26.178c-.03.035-.035.132-.035.983.002.812.006.95.033.985.028.039.051.041.358.037.34-.004.391-.016.35-.083-.018-.028-.061-.035-.242-.041-.169-.004-.232-.014-.267-.041l-.047-.035-.006-.901c-.006-.771-.01-.903-.037-.92-.045-.028-.071-.024-.108.016zM21.279 26.161c-.039.01-.073.026-.077.039s-.024.022-.047.022c-.02 0-.039.006-.039.016a.272.272 0 0 1-.055.075c-.098.104-.114.214-.122.804-.008.462-.004.561.026.692.02.083.049.163.063.175s.026.028.026.037c0 .026.083.094.155.124.083.035.323.041.344.01.006-.012.028-.02.049-.02.051 0 .185-.157.185-.216 0-.028.01-.069.02-.09.028-.053.028-1.322 0-1.351-.01-.01-.02-.047-.02-.077s-.008-.057-.016-.057-.033-.028-.051-.061c-.02-.035-.051-.061-.067-.061s-.051-.012-.075-.028a.482.482 0 0 0-.299-.033zm.24.161a.035.035 0 0 0 .03.022c.014 0 .043.026.065.057.039.053.041.087.041.781v.726l-.081.071c-.071.065-.094.073-.189.073-.077 0-.11-.008-.118-.03-.008-.016-.024-.03-.041-.03s-.028-.01-.028-.022c0-.014-.016-.037-.035-.051-.035-.022-.037-.083-.037-.745 0-.686.002-.72.041-.773.022-.03.053-.057.067-.057.012 0 .024-.008.024-.018s.016-.024.037-.03c.057-.016.216.002.224.026zM22.428 26.157c-.132.049-.254.138-.254.185a.208.208 0 0 1-.03.071c-.028.041-.03.148-.026.775.004.561.012.73.033.738.012.004.024.026.024.049 0 .051.114.159.167.159.02 0 .037.008.037.02 0 .026.299.026.315.002.006-.01.039-.024.071-.033.035-.008.061-.026.061-.043s.014-.028.03-.028.037-.024.043-.057c.008-.03.024-.061.037-.069.014-.01.022-.142.022-.397v-.382h-.326v.061c0 .051.008.061.057.067.12.014.136.049.136.313 0 .13-.008.242-.018.25-.01.006-.024.037-.033.067-.016.075-.13.146-.234.146-.106 0-.222-.071-.238-.148-.006-.03-.018-.055-.028-.055-.024 0-.024-1.337 0-1.351.008-.006.022-.039.028-.071.014-.065.138-.144.228-.144.073 0 .234.083.234.122 0 .016.012.051.028.073s.033.087.037.142c.006.098.008.1.075.106l.067.006-.008-.157c-.004-.1-.016-.161-.033-.167-.014-.004-.024-.022-.024-.041-.002-.047-.079-.128-.165-.173a.52.52 0 0 0-.313-.039zM23.269 26.163c-.035.018-.037.087-.037.995v.976l.047.028c.024.018.065.026.092.018l.045-.01v-2.006l-.045-.012c-.059-.014-.061-.014-.102.01zM24.011 26.153a.134.134 0 0 0-.067.041.09.09 0 0 1-.059.028c-.035 0-.124.116-.124.165a.14.14 0 0 1-.03.067c-.02.026-.03.087-.03.165s.01.138.03.165c.016.02.03.063.03.094 0 .037.01.057.03.057a.03.03 0 0 1 .03.03.05.05 0 0 0 .03.043c.016.008.03.024.03.041s.014.028.03.028.03.014.03.03.014.03.03.03.03.014.03.03.018.03.041.03c.022 0 .041.008.041.02 0 .024.075.102.1.102.01 0 .033.022.049.049a.718.718 0 0 0 .065.081c.02.018.045.069.055.11.03.112.043.289.02.289-.01 0-.024.026-.03.059-.014.069-.128.144-.224.144-.085 0-.238-.081-.238-.128a.196.196 0 0 0-.018-.071.377.377 0 0 1-.033-.112c-.01-.067-.018-.075-.071-.075-.061 0-.061 0-.061.124 0 .081.01.132.03.153.016.018.03.049.03.071 0 .02.014.039.03.039s.03.008.03.02c0 .01.039.039.085.061.09.043.348.059.372.022.006-.01.039-.024.071-.033.035-.008.061-.026.061-.043s.012-.028.026-.028c.041-.002.1-.142.11-.267.012-.12-.024-.323-.057-.323-.01 0-.018-.014-.018-.03 0-.049-.146-.207-.285-.313a1.016 1.016 0 0 1-.242-.252c-.016-.03-.037-.055-.047-.055a.644.644 0 0 1-.016-.197v-.195l.077-.069c.069-.065.083-.069.185-.061.061.004.116.018.12.03.004.014.02.024.035.024.033 0 .112.157.112.22 0 .039.012.045.073.045h.075l-.014-.094a.395.395 0 0 0-.384-.364.876.876 0 0 0-.151.002zM24.774 26.155c-.024.006-.037.028-.037.069v.059h.134a.4.4 0 0 1 .193.035l.059.035v.879c0 .484.006.893.012.911.008.02.037.033.071.033h.059v-.915c0-.769.004-.915.028-.915.016 0 .033-.014.039-.03.008-.02.053-.03.161-.035.128-.006.148-.012.155-.045.016-.081-.043-.094-.452-.092a5.496 5.496 0 0 0-.423.012z"/></symbol><symbol id="phone" viewBox="0 0 32 32"><path d="m9.052 3.023 1.897-.572a3.716 3.716 0 0 1 4.46 2.033l1.181 2.627a3.714 3.714 0 0 1-.855 4.239l-2.063 1.924a.316.316 0 0 0-.062.083c-.216.441.111 1.619 1.139 3.4 1.159 2.007 2.054 2.801 2.468 2.678l2.708-.828a3.713 3.713 0 0 1 4.098 1.379L25.7 22.31a3.714 3.714 0 0 1-.458 4.87L23.8 28.546a4.284 4.284 0 0 1-3.819 1.084c-4.02-.836-7.621-4.073-10.834-9.638C5.931 14.421 4.929 9.68 6.221 5.779a4.286 4.286 0 0 1 2.832-2.756zm.495 1.641a2.572 2.572 0 0 0-1.699 1.654c-1.113 3.361-.211 7.63 2.783 12.817 2.992 5.182 6.235 8.097 9.699 8.817a2.574 2.574 0 0 0 2.292-.651l1.442-1.366a2 2 0 0 0 .247-2.622l-1.677-2.324a2 2 0 0 0-2.207-.742l-2.714.83c-1.502.448-2.913-.804-4.448-3.462-1.299-2.25-1.75-3.875-1.194-5.01a2 2 0 0 1 .433-.584l2.063-1.924a2 2 0 0 0 .46-2.283l-1.181-2.627a2 2 0 0 0-2.401-1.095l-1.897.572z"/></symbol><symbol id="viber" viewBox="0 0 32 32"><path d="M15.633 1.92c-.873.005-1.748.058-2.63.165-1.688.208-3.36.553-4.965 1.29C5.485 4.548 3.676 6.537 3.15 9.43a38.056 38.056 0 0 0-.505 3.703c-.197 2.418-.075 4.843.61 7.225.54 1.878 1.535 3.565 3.277 4.66.737.462 1.71.688 2.217.922.143.067.178.108.185.117.008.008.027.025.025.175-.018 1.53 0 4.49 0 4.49l.002.637h1.143l.185-.18s2.902-2.793 3.953-3.942c.19-.205.287-.32.307-.332.018-.012-.012-.02.182-.025 1.377-.027 2.752-.08 4.127-.155 1.813-.1 3.66-.273 5.438-1.015 1.547-.648 2.84-1.705 3.622-3.29.8-1.625 1.227-3.348 1.387-5.13.265-2.967.172-5.94-.648-8.87-.483-1.718-1.453-3.17-2.94-4.195C23.937 3 21.929 2.54 19.964 2.247a29.77 29.77 0 0 0-3.462-.317c-.29-.008-.58-.012-.873-.01zm.837 1.29c1.102.03 2.205.138 3.31.303 1.895.282 3.683.713 5.215 1.768 1.242.855 2.017 2.01 2.433 3.482.765 2.74.863 5.547.605 8.415-.148 1.652-.54 3.21-1.262 4.677-.637 1.295-1.633 2.117-2.968 2.675-1.55.648-3.235.82-5.01.918-1.36.075-2.723.125-4.085.152-.342.008-.678.098-.915.273s-.345.337-.492.497c-.75.82-2.245 2.262-3.06 3.053-.005-.955-.012-2.11 0-3.175.005-.328-.07-.663-.258-.927s-.445-.425-.693-.54c-.723-.335-1.668-.59-2.078-.848-1.433-.9-2.245-2.25-2.728-3.93-.632-2.198-.752-4.46-.565-6.762.1-1.195.273-2.393.49-3.58.455-2.502 1.885-4.077 4.16-5.122 1.438-.66 2.973-.985 4.59-1.183a21.821 21.821 0 0 1 3.31-.145zm.27 3.19c-.527 0-1.04.06-1.537.17a.641.641 0 0 0 .286 1.25c.402-.093.822-.14 1.252-.14a5.635 5.635 0 0 1 5.645 5.643c0 .432-.047.852-.14 1.258a.64.64 0 1 0 1.248.28 6.89 6.89 0 0 0 .172-1.537c0-3.815-3.108-6.923-6.925-6.923zm-6.385 1.283a1.257 1.257 0 0 0-.325.027c-1.162.258-2.317 1.1-2.35 2.605.032.21.03.435.107.625.38.93.71 1.89 1.185 2.77 2.313 4.275 5.81 7.248 10.268 9.135.532.225 1.082.273 1.62.047.74-.308 1.367-.782 1.785-1.465.573-.938.58-1.587-.363-2.28-.617-.455-1.225-.922-1.85-1.367-.953-.675-1.982-.793-2.692.392-.038.06-.093.11-.14.16-.365.387-.813.483-1.288.288-1.803-.742-3.195-1.94-4.035-3.723-.495-1.047-.36-1.572.565-2.27.092-.068.18-.14.265-.217.405-.37.512-.81.273-1.307a10.236 10.236 0 0 0-2.18-3.02c-.248-.235-.53-.383-.845-.4zm6.375.637a4.98 4.98 0 0 0-.838.07.643.643 0 0 0-.408 1.05c.152.178.393.26.622.21.2-.033.41-.05.622-.05 2.08 0 3.75 1.67 3.75 3.75 0 .213-.017.422-.05.623-.05.23.032.47.21.623a.64.64 0 0 0 1.05-.408 5.04 5.04 0 0 0-4.96-5.868zm-.09 1.92a.645.645 0 0 0-.563.318.646.646 0 0 0 0 .645c.117.2.332.32.563.318 1.067 0 1.92.853 1.92 1.92a.644.644 0 0 0 .317.563.641.641 0 0 0 .962-.563c0-1.76-1.44-3.2-3.2-3.2z"/></symbol><symbol id="whatsapp" viewBox="0 0 32 32"><path d="M16.016 2.667c-7.341 0-13.318 5.971-13.32 13.313a13.278 13.278 0 0 0 1.779 6.656l-1.807 6.698 6.977-1.648a13.318 13.318 0 0 0 6.365 1.62h.005c7.34 0 13.314-5.973 13.318-13.313a13.227 13.227 0 0 0-3.896-9.422 13.235 13.235 0 0 0-9.419-3.904zm-.003 2.666a10.6 10.6 0 0 1 7.536 3.122 10.576 10.576 0 0 1 3.115 7.534c-.003 5.872-4.779 10.648-10.654 10.648a10.672 10.672 0 0 1-5.089-1.294l-.898-.49-3.617.854.641-2.38.289-1.068-.552-.958a10.64 10.64 0 0 1-1.422-5.323c.003-5.869 4.78-10.646 10.651-10.646zm-4.711 4.5a1.22 1.22 0 0 0-.888.417c-.305.332-1.167 1.136-1.167 2.773s1.193 3.22 1.359 3.443c.165.221 2.302 3.688 5.685 5.021 2.811 1.108 3.382.889 3.992.833.611-.055 1.97-.803 2.247-1.581s.278-1.446.195-1.583c-.083-.139-.305-.221-.638-.388-.332-.167-1.968-.97-2.273-1.081s-.529-.167-.75.167c-.221.333-.857 1.081-1.052 1.302-.195.223-.388.253-.721.086-.333-.168-1.405-.52-2.677-1.654-.989-.881-1.657-1.969-1.852-2.302-.193-.332-.018-.514.148-.68.149-.149.331-.389.497-.583.165-.195.223-.333.333-.555s.054-.417-.029-.583c-.083-.167-.73-1.81-1.026-2.469-.249-.553-.513-.566-.75-.576-.193-.008-.414-.008-.635-.008z"/></symbol><symbol id="instagram" viewBox="0 0 32 32"><path d="M10.24 1.92c-4.587 0-8.32 3.733-8.32 8.32v11.52c0 4.587 3.733 8.32 8.32 8.32h11.52c4.587 0 8.32-3.733 8.32-8.32V10.24c0-4.587-3.733-8.32-8.32-8.32H10.24zm0 1.28h11.52a7.031 7.031 0 0 1 7.04 7.04v11.52a7.031 7.031 0 0 1-7.04 7.04H10.24a7.031 7.031 0 0 1-7.04-7.04V10.24a7.031 7.031 0 0 1 7.04-7.04zm13.44 3.84a1.28 1.28 0 1 0 0 2.56 1.28 1.28 0 1 0 0-2.56zM16 8.96c-3.88 0-7.04 3.159-7.04 7.04s3.159 7.04 7.04 7.04c3.881 0 7.04-3.16 7.04-7.04S19.88 8.96 16 8.96zm0 1.28c3.189 0 5.76 2.571 5.76 5.76s-2.571 5.76-5.76 5.76c-3.189 0-5.76-2.571-5.76-5.76s2.571-5.76 5.76-5.76z"/></symbol><symbol id="telegram" viewBox="0 0 32 32"><path d="M28.401 3.831c-.312.014-.615.1-.889.21-.271.109-1.83.774-4.133 1.759s-5.296 2.266-8.262 3.538C9.183 11.88 3.352 14.382 3.352 14.382l.042-.016s-.352.118-.709.366c-.178.124-.37.285-.527.519s-.272.566-.229.916c.152 1.232 1.429 1.581 1.429 1.581l.005.003 5.697 1.95c.145.485 1.728 5.767 2.076 6.886.192.619.372.975.56 1.219.094.122.192.216.301.285a.832.832 0 0 0 .134.066h.002l.016.005-.015-.004.031.015c.02.007.033.007.059.012.652.228 1.192-.195 1.192-.195l.023-.017 3.5-3.246 5.68 4.429.071.032c.994.441 1.893.195 2.391-.21s.694-.927.694-.927l.021-.055L29.97 6.242c.107-.487.122-.907.021-1.287s-.345-.711-.652-.894a1.663 1.663 0 0 0-.94-.229zm.034 1.302c.127-.006.22.009.25.026s.043.015.071.122c.028.107.044.333-.034.686l-.003.008-4.15 21.628c-.01.022-.096.222-.294.383-.201.164-.425.292-1.02.043l-6.39-4.977-1.857-1.394L25.447 9.377a.64.64 0 0 0-.487-1.055h-.017.001a.633.633 0 0 0-.341.109l.002-.001L9.5 18.5l-5.706-1.954s-.567-.315-.594-.535c-.002-.012-.008-.001.021-.045s.103-.118.196-.182c.186-.129.397-.207.397-.207l.021-.008.021-.009s5.831-2.502 11.765-5.044c2.967-1.271 5.959-2.552 8.261-3.536s3.964-1.692 4.105-1.749c.16-.064.32-.09.446-.096zm-6.923 6.894-7.92 9.317-.034.044-.001.002a.498.498 0 0 0-.033.051l-.002.003a.632.632 0 0 0-.083.243V21.696l-1.031 4.637c-.017-.05-.029-.068-.047-.128v-.001c-.328-1.052-1.821-6.035-2.027-6.724l11.18-7.454zm-7.022 10.84 1.422 1.067-2.09 1.938.668-3.005z"/></symbol></defs></svg>